%TF.GenerationSoftware,KiCad,Pcbnew,7.0.5*%
%TF.CreationDate,2023-07-17T11:59:49-04:00*%
%TF.ProjectId,Tadpole,54616470-6f6c-4652-9e6b-696361645f70,rev?*%
%TF.SameCoordinates,Original*%
%TF.FileFunction,Drillmap*%
%TF.FilePolarity,Positive*%
%FSLAX45Y45*%
G04 Gerber Fmt 4.5, Leading zero omitted, Abs format (unit mm)*
G04 Created by KiCad (PCBNEW 7.0.5) date 2023-07-17 11:59:49*
%MOMM*%
%LPD*%
G01*
G04 APERTURE LIST*
%ADD10C,0.100000*%
%ADD11C,0.200000*%
G04 APERTURE END LIST*
D10*
X11201400Y-7146280D02*
X16401400Y-7146280D01*
X16401400Y-12146280D01*
X11201400Y-12146280D01*
X11201400Y-7146280D01*
D11*
D10*
X11400320Y-8192300D02*
X11500320Y-8292300D01*
X11500320Y-8192300D02*
X11400320Y-8292300D01*
X11400320Y-8446300D02*
X11500320Y-8546300D01*
X11500320Y-8446300D02*
X11400320Y-8546300D01*
X11400320Y-10836440D02*
X11500320Y-10936440D01*
X11500320Y-10836440D02*
X11400320Y-10936440D01*
X11400320Y-11090440D02*
X11500320Y-11190440D01*
X11500320Y-11090440D02*
X11400320Y-11190440D01*
X11477520Y-8878100D02*
X11577520Y-8978100D01*
X11577520Y-8878100D02*
X11477520Y-8978100D01*
X11477520Y-10402100D02*
X11577520Y-10502100D01*
X11577520Y-10402100D02*
X11477520Y-10502100D01*
X11654320Y-8192300D02*
X11754320Y-8292300D01*
X11754320Y-8192300D02*
X11654320Y-8292300D01*
X11654320Y-8446300D02*
X11754320Y-8546300D01*
X11754320Y-8446300D02*
X11654320Y-8546300D01*
X11654320Y-10836440D02*
X11754320Y-10936440D01*
X11754320Y-10836440D02*
X11654320Y-10936440D01*
X11654320Y-11090440D02*
X11754320Y-11190440D01*
X11754320Y-11090440D02*
X11654320Y-11190440D01*
X11731520Y-8878100D02*
X11831520Y-8978100D01*
X11831520Y-8878100D02*
X11731520Y-8978100D01*
X11731520Y-10402100D02*
X11831520Y-10502100D01*
X11831520Y-10402100D02*
X11731520Y-10502100D01*
X11949960Y-9957600D02*
X12049960Y-10057600D01*
X12049960Y-9957600D02*
X11949960Y-10057600D01*
X11949960Y-11227600D02*
X12049960Y-11327600D01*
X12049960Y-11227600D02*
X11949960Y-11327600D01*
X11960120Y-8202460D02*
X12060120Y-8302460D01*
X12060120Y-8202460D02*
X11960120Y-8302460D01*
X11960120Y-9472460D02*
X12060120Y-9572460D01*
X12060120Y-9472460D02*
X11960120Y-9572460D01*
X11985520Y-8878100D02*
X12085520Y-8978100D01*
X12085520Y-8878100D02*
X11985520Y-8978100D01*
X11985520Y-10402100D02*
X12085520Y-10502100D01*
X12085520Y-10402100D02*
X11985520Y-10502100D01*
X12092360Y-10983760D02*
X12192360Y-11083760D01*
X12192360Y-10983760D02*
X12092360Y-11083760D01*
X12203960Y-9957600D02*
X12303960Y-10057600D01*
X12303960Y-9957600D02*
X12203960Y-10057600D01*
X12203960Y-11227600D02*
X12303960Y-11327600D01*
X12303960Y-11227600D02*
X12203960Y-11327600D01*
X12214120Y-8202460D02*
X12314120Y-8302460D01*
X12314120Y-8202460D02*
X12214120Y-8302460D01*
X12214120Y-9472460D02*
X12314120Y-9572460D01*
X12314120Y-9472460D02*
X12214120Y-9572460D01*
X12239520Y-8878100D02*
X12339520Y-8978100D01*
X12339520Y-8878100D02*
X12239520Y-8978100D01*
X12239520Y-10402100D02*
X12339520Y-10502100D01*
X12339520Y-10402100D02*
X12239520Y-10502100D01*
X12346360Y-10983760D02*
X12446360Y-11083760D01*
X12446360Y-10983760D02*
X12346360Y-11083760D01*
X12457960Y-9957600D02*
X12557960Y-10057600D01*
X12557960Y-9957600D02*
X12457960Y-10057600D01*
X12457960Y-11227600D02*
X12557960Y-11327600D01*
X12557960Y-11227600D02*
X12457960Y-11327600D01*
X12468120Y-8202460D02*
X12568120Y-8302460D01*
X12568120Y-8202460D02*
X12468120Y-8302460D01*
X12468120Y-9472460D02*
X12568120Y-9572460D01*
X12568120Y-9472460D02*
X12468120Y-9572460D01*
X12493520Y-8878100D02*
X12593520Y-8978100D01*
X12593520Y-8878100D02*
X12493520Y-8978100D01*
X12493520Y-10402100D02*
X12593520Y-10502100D01*
X12593520Y-10402100D02*
X12493520Y-10502100D01*
X12600360Y-10983760D02*
X12700360Y-11083760D01*
X12700360Y-10983760D02*
X12600360Y-11083760D01*
X12711960Y-9957600D02*
X12811960Y-10057600D01*
X12811960Y-9957600D02*
X12711960Y-10057600D01*
X12711960Y-11227600D02*
X12811960Y-11327600D01*
X12811960Y-11227600D02*
X12711960Y-11327600D01*
X12722120Y-8202460D02*
X12822120Y-8302460D01*
X12822120Y-8202460D02*
X12722120Y-8302460D01*
X12722120Y-9472460D02*
X12822120Y-9572460D01*
X12822120Y-9472460D02*
X12722120Y-9572460D01*
X12747520Y-8878100D02*
X12847520Y-8978100D01*
X12847520Y-8878100D02*
X12747520Y-8978100D01*
X12747520Y-10402100D02*
X12847520Y-10502100D01*
X12847520Y-10402100D02*
X12747520Y-10502100D01*
X12854360Y-10983760D02*
X12954360Y-11083760D01*
X12954360Y-10983760D02*
X12854360Y-11083760D01*
X12891300Y-7557300D02*
X12991300Y-7657300D01*
X12991300Y-7557300D02*
X12891300Y-7657300D01*
X12965960Y-9957600D02*
X13065960Y-10057600D01*
X13065960Y-9957600D02*
X12965960Y-10057600D01*
X12965960Y-11227600D02*
X13065960Y-11327600D01*
X13065960Y-11227600D02*
X12965960Y-11327600D01*
X12976120Y-8202460D02*
X13076120Y-8302460D01*
X13076120Y-8202460D02*
X12976120Y-8302460D01*
X12976120Y-9472460D02*
X13076120Y-9572460D01*
X13076120Y-9472460D02*
X12976120Y-9572460D01*
X13001520Y-8878100D02*
X13101520Y-8978100D01*
X13101520Y-8878100D02*
X13001520Y-8978100D01*
X13001520Y-10402100D02*
X13101520Y-10502100D01*
X13101520Y-10402100D02*
X13001520Y-10502100D01*
X13108360Y-10983760D02*
X13208360Y-11083760D01*
X13208360Y-10983760D02*
X13108360Y-11083760D01*
X13145300Y-7557300D02*
X13245300Y-7657300D01*
X13245300Y-7557300D02*
X13145300Y-7657300D01*
X13219960Y-9957600D02*
X13319960Y-10057600D01*
X13319960Y-9957600D02*
X13219960Y-10057600D01*
X13219960Y-11227600D02*
X13319960Y-11327600D01*
X13319960Y-11227600D02*
X13219960Y-11327600D01*
X13230120Y-8202460D02*
X13330120Y-8302460D01*
X13330120Y-8202460D02*
X13230120Y-8302460D01*
X13230120Y-9472460D02*
X13330120Y-9572460D01*
X13330120Y-9472460D02*
X13230120Y-9572460D01*
X13255520Y-8878100D02*
X13355520Y-8978100D01*
X13355520Y-8878100D02*
X13255520Y-8978100D01*
X13255520Y-10402100D02*
X13355520Y-10502100D01*
X13355520Y-10402100D02*
X13255520Y-10502100D01*
X13362360Y-10983760D02*
X13462360Y-11083760D01*
X13462360Y-10983760D02*
X13362360Y-11083760D01*
X13399300Y-7557300D02*
X13499300Y-7657300D01*
X13499300Y-7557300D02*
X13399300Y-7657300D01*
X13509520Y-8878100D02*
X13609520Y-8978100D01*
X13609520Y-8878100D02*
X13509520Y-8978100D01*
X13509520Y-10402100D02*
X13609520Y-10502100D01*
X13609520Y-10402100D02*
X13509520Y-10502100D01*
X13547620Y-8202460D02*
X13647620Y-8302460D01*
X13647620Y-8202460D02*
X13547620Y-8302460D01*
X13547620Y-9472460D02*
X13647620Y-9572460D01*
X13647620Y-9472460D02*
X13547620Y-9572460D01*
X13547620Y-9957600D02*
X13647620Y-10057600D01*
X13647620Y-9957600D02*
X13547620Y-10057600D01*
X13547620Y-11227600D02*
X13647620Y-11327600D01*
X13647620Y-11227600D02*
X13547620Y-11327600D01*
X13616360Y-10983760D02*
X13716360Y-11083760D01*
X13716360Y-10983760D02*
X13616360Y-11083760D01*
X13653300Y-7557300D02*
X13753300Y-7657300D01*
X13753300Y-7557300D02*
X13653300Y-7657300D01*
X13763520Y-8878100D02*
X13863520Y-8978100D01*
X13863520Y-8878100D02*
X13763520Y-8978100D01*
X13763520Y-10402100D02*
X13863520Y-10502100D01*
X13863520Y-10402100D02*
X13763520Y-10502100D01*
X13801620Y-8202460D02*
X13901620Y-8302460D01*
X13901620Y-8202460D02*
X13801620Y-8302460D01*
X13801620Y-9472460D02*
X13901620Y-9572460D01*
X13901620Y-9472460D02*
X13801620Y-9572460D01*
X13801620Y-9957600D02*
X13901620Y-10057600D01*
X13901620Y-9957600D02*
X13801620Y-10057600D01*
X13801620Y-11227600D02*
X13901620Y-11327600D01*
X13901620Y-11227600D02*
X13801620Y-11327600D01*
X13870360Y-10983760D02*
X13970360Y-11083760D01*
X13970360Y-10983760D02*
X13870360Y-11083760D01*
X13907300Y-7557300D02*
X14007300Y-7657300D01*
X14007300Y-7557300D02*
X13907300Y-7657300D01*
X14017520Y-8878100D02*
X14117520Y-8978100D01*
X14117520Y-8878100D02*
X14017520Y-8978100D01*
X14017520Y-10402100D02*
X14117520Y-10502100D01*
X14117520Y-10402100D02*
X14017520Y-10502100D01*
X14055620Y-8202460D02*
X14155620Y-8302460D01*
X14155620Y-8202460D02*
X14055620Y-8302460D01*
X14055620Y-9472460D02*
X14155620Y-9572460D01*
X14155620Y-9472460D02*
X14055620Y-9572460D01*
X14055620Y-9957600D02*
X14155620Y-10057600D01*
X14155620Y-9957600D02*
X14055620Y-10057600D01*
X14055620Y-11227600D02*
X14155620Y-11327600D01*
X14155620Y-11227600D02*
X14055620Y-11327600D01*
X14124360Y-10983760D02*
X14224360Y-11083760D01*
X14224360Y-10983760D02*
X14124360Y-11083760D01*
X14271520Y-8878100D02*
X14371520Y-8978100D01*
X14371520Y-8878100D02*
X14271520Y-8978100D01*
X14271520Y-10402100D02*
X14371520Y-10502100D01*
X14371520Y-10402100D02*
X14271520Y-10502100D01*
X14309620Y-8202460D02*
X14409620Y-8302460D01*
X14409620Y-8202460D02*
X14309620Y-8302460D01*
X14309620Y-9472460D02*
X14409620Y-9572460D01*
X14409620Y-9472460D02*
X14309620Y-9572460D01*
X14309620Y-9957600D02*
X14409620Y-10057600D01*
X14409620Y-9957600D02*
X14309620Y-10057600D01*
X14309620Y-11227600D02*
X14409620Y-11327600D01*
X14409620Y-11227600D02*
X14309620Y-11327600D01*
X14525520Y-8878100D02*
X14625520Y-8978100D01*
X14625520Y-8878100D02*
X14525520Y-8978100D01*
X14525520Y-10402100D02*
X14625520Y-10502100D01*
X14625520Y-10402100D02*
X14525520Y-10502100D01*
X14563620Y-8202460D02*
X14663620Y-8302460D01*
X14663620Y-8202460D02*
X14563620Y-8302460D01*
X14563620Y-9472460D02*
X14663620Y-9572460D01*
X14663620Y-9472460D02*
X14563620Y-9572460D01*
X14563620Y-9957600D02*
X14663620Y-10057600D01*
X14663620Y-9957600D02*
X14563620Y-10057600D01*
X14563620Y-11227600D02*
X14663620Y-11327600D01*
X14663620Y-11227600D02*
X14563620Y-11327600D01*
X14779520Y-8878100D02*
X14879520Y-8978100D01*
X14879520Y-8878100D02*
X14779520Y-8978100D01*
X14779520Y-10402100D02*
X14879520Y-10502100D01*
X14879520Y-10402100D02*
X14779520Y-10502100D01*
X14817620Y-8202460D02*
X14917620Y-8302460D01*
X14917620Y-8202460D02*
X14817620Y-8302460D01*
X14817620Y-9472460D02*
X14917620Y-9572460D01*
X14917620Y-9472460D02*
X14817620Y-9572460D01*
X14817620Y-9957600D02*
X14917620Y-10057600D01*
X14917620Y-9957600D02*
X14817620Y-10057600D01*
X14817620Y-11227600D02*
X14917620Y-11327600D01*
X14917620Y-11227600D02*
X14817620Y-11327600D01*
X15209700Y-9489740D02*
X15309700Y-9589740D01*
X15309700Y-9489740D02*
X15209700Y-9589740D01*
X15209700Y-9743740D02*
X15309700Y-9843740D01*
X15309700Y-9743740D02*
X15209700Y-9843740D01*
X15261120Y-10351300D02*
X15361120Y-10451300D01*
X15361120Y-10351300D02*
X15261120Y-10451300D01*
X15261120Y-10605300D02*
X15361120Y-10705300D01*
X15361120Y-10605300D02*
X15261120Y-10705300D01*
X15263120Y-8528700D02*
X15363120Y-8628700D01*
X15363120Y-8528700D02*
X15263120Y-8628700D01*
X15263120Y-8782700D02*
X15363120Y-8882700D01*
X15363120Y-8782700D02*
X15263120Y-8882700D01*
X15515120Y-10351300D02*
X15615120Y-10451300D01*
X15615120Y-10351300D02*
X15515120Y-10451300D01*
X15515120Y-10605300D02*
X15615120Y-10705300D01*
X15615120Y-10605300D02*
X15515120Y-10705300D01*
X15517120Y-8528700D02*
X15617120Y-8628700D01*
X15617120Y-8528700D02*
X15517120Y-8628700D01*
X15517120Y-8782700D02*
X15617120Y-8882700D01*
X15617120Y-8782700D02*
X15517120Y-8882700D01*
X15769120Y-10351300D02*
X15869120Y-10451300D01*
X15869120Y-10351300D02*
X15769120Y-10451300D01*
X15769120Y-10605300D02*
X15869120Y-10705300D01*
X15869120Y-10605300D02*
X15769120Y-10705300D01*
X15771120Y-8528700D02*
X15871120Y-8628700D01*
X15871120Y-8528700D02*
X15771120Y-8628700D01*
X15771120Y-8782700D02*
X15871120Y-8882700D01*
X15871120Y-8782700D02*
X15771120Y-8882700D01*
X16023120Y-10351300D02*
X16123120Y-10451300D01*
X16123120Y-10351300D02*
X16023120Y-10451300D01*
X16023120Y-10605300D02*
X16123120Y-10705300D01*
X16123120Y-10605300D02*
X16023120Y-10705300D01*
X16025120Y-8528700D02*
X16125120Y-8628700D01*
X16125120Y-8528700D02*
X16025120Y-8628700D01*
X16025120Y-8782700D02*
X16125120Y-8882700D01*
X16125120Y-8782700D02*
X16025120Y-8882700D01*
D11*
X11457177Y-12462764D02*
X11457177Y-12262764D01*
X11457177Y-12262764D02*
X11504796Y-12262764D01*
X11504796Y-12262764D02*
X11533367Y-12272288D01*
X11533367Y-12272288D02*
X11552415Y-12291335D01*
X11552415Y-12291335D02*
X11561939Y-12310383D01*
X11561939Y-12310383D02*
X11571462Y-12348478D01*
X11571462Y-12348478D02*
X11571462Y-12377049D01*
X11571462Y-12377049D02*
X11561939Y-12415145D01*
X11561939Y-12415145D02*
X11552415Y-12434192D01*
X11552415Y-12434192D02*
X11533367Y-12453240D01*
X11533367Y-12453240D02*
X11504796Y-12462764D01*
X11504796Y-12462764D02*
X11457177Y-12462764D01*
X11657177Y-12462764D02*
X11657177Y-12329430D01*
X11657177Y-12367526D02*
X11666701Y-12348478D01*
X11666701Y-12348478D02*
X11676224Y-12338954D01*
X11676224Y-12338954D02*
X11695272Y-12329430D01*
X11695272Y-12329430D02*
X11714320Y-12329430D01*
X11780986Y-12462764D02*
X11780986Y-12329430D01*
X11780986Y-12262764D02*
X11771462Y-12272288D01*
X11771462Y-12272288D02*
X11780986Y-12281811D01*
X11780986Y-12281811D02*
X11790510Y-12272288D01*
X11790510Y-12272288D02*
X11780986Y-12262764D01*
X11780986Y-12262764D02*
X11780986Y-12281811D01*
X11904796Y-12462764D02*
X11885748Y-12453240D01*
X11885748Y-12453240D02*
X11876224Y-12434192D01*
X11876224Y-12434192D02*
X11876224Y-12262764D01*
X12009558Y-12462764D02*
X11990510Y-12453240D01*
X11990510Y-12453240D02*
X11980986Y-12434192D01*
X11980986Y-12434192D02*
X11980986Y-12262764D01*
X12238129Y-12462764D02*
X12238129Y-12262764D01*
X12238129Y-12262764D02*
X12304796Y-12405621D01*
X12304796Y-12405621D02*
X12371462Y-12262764D01*
X12371462Y-12262764D02*
X12371462Y-12462764D01*
X12552415Y-12462764D02*
X12552415Y-12358002D01*
X12552415Y-12358002D02*
X12542891Y-12338954D01*
X12542891Y-12338954D02*
X12523843Y-12329430D01*
X12523843Y-12329430D02*
X12485748Y-12329430D01*
X12485748Y-12329430D02*
X12466701Y-12338954D01*
X12552415Y-12453240D02*
X12533367Y-12462764D01*
X12533367Y-12462764D02*
X12485748Y-12462764D01*
X12485748Y-12462764D02*
X12466701Y-12453240D01*
X12466701Y-12453240D02*
X12457177Y-12434192D01*
X12457177Y-12434192D02*
X12457177Y-12415145D01*
X12457177Y-12415145D02*
X12466701Y-12396097D01*
X12466701Y-12396097D02*
X12485748Y-12386573D01*
X12485748Y-12386573D02*
X12533367Y-12386573D01*
X12533367Y-12386573D02*
X12552415Y-12377049D01*
X12647653Y-12329430D02*
X12647653Y-12529430D01*
X12647653Y-12338954D02*
X12666701Y-12329430D01*
X12666701Y-12329430D02*
X12704796Y-12329430D01*
X12704796Y-12329430D02*
X12723843Y-12338954D01*
X12723843Y-12338954D02*
X12733367Y-12348478D01*
X12733367Y-12348478D02*
X12742891Y-12367526D01*
X12742891Y-12367526D02*
X12742891Y-12424668D01*
X12742891Y-12424668D02*
X12733367Y-12443716D01*
X12733367Y-12443716D02*
X12723843Y-12453240D01*
X12723843Y-12453240D02*
X12704796Y-12462764D01*
X12704796Y-12462764D02*
X12666701Y-12462764D01*
X12666701Y-12462764D02*
X12647653Y-12453240D01*
X12828605Y-12443716D02*
X12838129Y-12453240D01*
X12838129Y-12453240D02*
X12828605Y-12462764D01*
X12828605Y-12462764D02*
X12819082Y-12453240D01*
X12819082Y-12453240D02*
X12828605Y-12443716D01*
X12828605Y-12443716D02*
X12828605Y-12462764D01*
X12828605Y-12338954D02*
X12838129Y-12348478D01*
X12838129Y-12348478D02*
X12828605Y-12358002D01*
X12828605Y-12358002D02*
X12819082Y-12348478D01*
X12819082Y-12348478D02*
X12828605Y-12338954D01*
X12828605Y-12338954D02*
X12828605Y-12358002D01*
D10*
X11096400Y-12741280D02*
X11196400Y-12841280D01*
X11196400Y-12741280D02*
X11096400Y-12841280D01*
D11*
X11561939Y-12882764D02*
X11447653Y-12882764D01*
X11504796Y-12882764D02*
X11504796Y-12682764D01*
X11504796Y-12682764D02*
X11485748Y-12711335D01*
X11485748Y-12711335D02*
X11466701Y-12730383D01*
X11466701Y-12730383D02*
X11447653Y-12739907D01*
X11647653Y-12863716D02*
X11657177Y-12873240D01*
X11657177Y-12873240D02*
X11647653Y-12882764D01*
X11647653Y-12882764D02*
X11638129Y-12873240D01*
X11638129Y-12873240D02*
X11647653Y-12863716D01*
X11647653Y-12863716D02*
X11647653Y-12882764D01*
X11780986Y-12682764D02*
X11800034Y-12682764D01*
X11800034Y-12682764D02*
X11819082Y-12692288D01*
X11819082Y-12692288D02*
X11828605Y-12701811D01*
X11828605Y-12701811D02*
X11838129Y-12720859D01*
X11838129Y-12720859D02*
X11847653Y-12758954D01*
X11847653Y-12758954D02*
X11847653Y-12806573D01*
X11847653Y-12806573D02*
X11838129Y-12844668D01*
X11838129Y-12844668D02*
X11828605Y-12863716D01*
X11828605Y-12863716D02*
X11819082Y-12873240D01*
X11819082Y-12873240D02*
X11800034Y-12882764D01*
X11800034Y-12882764D02*
X11780986Y-12882764D01*
X11780986Y-12882764D02*
X11761939Y-12873240D01*
X11761939Y-12873240D02*
X11752415Y-12863716D01*
X11752415Y-12863716D02*
X11742891Y-12844668D01*
X11742891Y-12844668D02*
X11733367Y-12806573D01*
X11733367Y-12806573D02*
X11733367Y-12758954D01*
X11733367Y-12758954D02*
X11742891Y-12720859D01*
X11742891Y-12720859D02*
X11752415Y-12701811D01*
X11752415Y-12701811D02*
X11761939Y-12692288D01*
X11761939Y-12692288D02*
X11780986Y-12682764D01*
X11971462Y-12682764D02*
X11990510Y-12682764D01*
X11990510Y-12682764D02*
X12009558Y-12692288D01*
X12009558Y-12692288D02*
X12019082Y-12701811D01*
X12019082Y-12701811D02*
X12028605Y-12720859D01*
X12028605Y-12720859D02*
X12038129Y-12758954D01*
X12038129Y-12758954D02*
X12038129Y-12806573D01*
X12038129Y-12806573D02*
X12028605Y-12844668D01*
X12028605Y-12844668D02*
X12019082Y-12863716D01*
X12019082Y-12863716D02*
X12009558Y-12873240D01*
X12009558Y-12873240D02*
X11990510Y-12882764D01*
X11990510Y-12882764D02*
X11971462Y-12882764D01*
X11971462Y-12882764D02*
X11952415Y-12873240D01*
X11952415Y-12873240D02*
X11942891Y-12863716D01*
X11942891Y-12863716D02*
X11933367Y-12844668D01*
X11933367Y-12844668D02*
X11923843Y-12806573D01*
X11923843Y-12806573D02*
X11923843Y-12758954D01*
X11923843Y-12758954D02*
X11933367Y-12720859D01*
X11933367Y-12720859D02*
X11942891Y-12701811D01*
X11942891Y-12701811D02*
X11952415Y-12692288D01*
X11952415Y-12692288D02*
X11971462Y-12682764D01*
X12161939Y-12682764D02*
X12180986Y-12682764D01*
X12180986Y-12682764D02*
X12200034Y-12692288D01*
X12200034Y-12692288D02*
X12209558Y-12701811D01*
X12209558Y-12701811D02*
X12219082Y-12720859D01*
X12219082Y-12720859D02*
X12228605Y-12758954D01*
X12228605Y-12758954D02*
X12228605Y-12806573D01*
X12228605Y-12806573D02*
X12219082Y-12844668D01*
X12219082Y-12844668D02*
X12209558Y-12863716D01*
X12209558Y-12863716D02*
X12200034Y-12873240D01*
X12200034Y-12873240D02*
X12180986Y-12882764D01*
X12180986Y-12882764D02*
X12161939Y-12882764D01*
X12161939Y-12882764D02*
X12142891Y-12873240D01*
X12142891Y-12873240D02*
X12133367Y-12863716D01*
X12133367Y-12863716D02*
X12123843Y-12844668D01*
X12123843Y-12844668D02*
X12114320Y-12806573D01*
X12114320Y-12806573D02*
X12114320Y-12758954D01*
X12114320Y-12758954D02*
X12123843Y-12720859D01*
X12123843Y-12720859D02*
X12133367Y-12701811D01*
X12133367Y-12701811D02*
X12142891Y-12692288D01*
X12142891Y-12692288D02*
X12161939Y-12682764D01*
X12314320Y-12882764D02*
X12314320Y-12749430D01*
X12314320Y-12768478D02*
X12323843Y-12758954D01*
X12323843Y-12758954D02*
X12342891Y-12749430D01*
X12342891Y-12749430D02*
X12371463Y-12749430D01*
X12371463Y-12749430D02*
X12390510Y-12758954D01*
X12390510Y-12758954D02*
X12400034Y-12778002D01*
X12400034Y-12778002D02*
X12400034Y-12882764D01*
X12400034Y-12778002D02*
X12409558Y-12758954D01*
X12409558Y-12758954D02*
X12428605Y-12749430D01*
X12428605Y-12749430D02*
X12457177Y-12749430D01*
X12457177Y-12749430D02*
X12476224Y-12758954D01*
X12476224Y-12758954D02*
X12485748Y-12778002D01*
X12485748Y-12778002D02*
X12485748Y-12882764D01*
X12580986Y-12882764D02*
X12580986Y-12749430D01*
X12580986Y-12768478D02*
X12590510Y-12758954D01*
X12590510Y-12758954D02*
X12609558Y-12749430D01*
X12609558Y-12749430D02*
X12638129Y-12749430D01*
X12638129Y-12749430D02*
X12657177Y-12758954D01*
X12657177Y-12758954D02*
X12666701Y-12778002D01*
X12666701Y-12778002D02*
X12666701Y-12882764D01*
X12666701Y-12778002D02*
X12676224Y-12758954D01*
X12676224Y-12758954D02*
X12695272Y-12749430D01*
X12695272Y-12749430D02*
X12723843Y-12749430D01*
X12723843Y-12749430D02*
X12742891Y-12758954D01*
X12742891Y-12758954D02*
X12752415Y-12778002D01*
X12752415Y-12778002D02*
X12752415Y-12882764D01*
X13142891Y-12673240D02*
X12971463Y-12930383D01*
X13400034Y-12682764D02*
X13419082Y-12682764D01*
X13419082Y-12682764D02*
X13438129Y-12692288D01*
X13438129Y-12692288D02*
X13447653Y-12701811D01*
X13447653Y-12701811D02*
X13457177Y-12720859D01*
X13457177Y-12720859D02*
X13466701Y-12758954D01*
X13466701Y-12758954D02*
X13466701Y-12806573D01*
X13466701Y-12806573D02*
X13457177Y-12844668D01*
X13457177Y-12844668D02*
X13447653Y-12863716D01*
X13447653Y-12863716D02*
X13438129Y-12873240D01*
X13438129Y-12873240D02*
X13419082Y-12882764D01*
X13419082Y-12882764D02*
X13400034Y-12882764D01*
X13400034Y-12882764D02*
X13380986Y-12873240D01*
X13380986Y-12873240D02*
X13371463Y-12863716D01*
X13371463Y-12863716D02*
X13361939Y-12844668D01*
X13361939Y-12844668D02*
X13352415Y-12806573D01*
X13352415Y-12806573D02*
X13352415Y-12758954D01*
X13352415Y-12758954D02*
X13361939Y-12720859D01*
X13361939Y-12720859D02*
X13371463Y-12701811D01*
X13371463Y-12701811D02*
X13380986Y-12692288D01*
X13380986Y-12692288D02*
X13400034Y-12682764D01*
X13552415Y-12863716D02*
X13561939Y-12873240D01*
X13561939Y-12873240D02*
X13552415Y-12882764D01*
X13552415Y-12882764D02*
X13542891Y-12873240D01*
X13542891Y-12873240D02*
X13552415Y-12863716D01*
X13552415Y-12863716D02*
X13552415Y-12882764D01*
X13685748Y-12682764D02*
X13704796Y-12682764D01*
X13704796Y-12682764D02*
X13723844Y-12692288D01*
X13723844Y-12692288D02*
X13733367Y-12701811D01*
X13733367Y-12701811D02*
X13742891Y-12720859D01*
X13742891Y-12720859D02*
X13752415Y-12758954D01*
X13752415Y-12758954D02*
X13752415Y-12806573D01*
X13752415Y-12806573D02*
X13742891Y-12844668D01*
X13742891Y-12844668D02*
X13733367Y-12863716D01*
X13733367Y-12863716D02*
X13723844Y-12873240D01*
X13723844Y-12873240D02*
X13704796Y-12882764D01*
X13704796Y-12882764D02*
X13685748Y-12882764D01*
X13685748Y-12882764D02*
X13666701Y-12873240D01*
X13666701Y-12873240D02*
X13657177Y-12863716D01*
X13657177Y-12863716D02*
X13647653Y-12844668D01*
X13647653Y-12844668D02*
X13638129Y-12806573D01*
X13638129Y-12806573D02*
X13638129Y-12758954D01*
X13638129Y-12758954D02*
X13647653Y-12720859D01*
X13647653Y-12720859D02*
X13657177Y-12701811D01*
X13657177Y-12701811D02*
X13666701Y-12692288D01*
X13666701Y-12692288D02*
X13685748Y-12682764D01*
X13819082Y-12682764D02*
X13942891Y-12682764D01*
X13942891Y-12682764D02*
X13876225Y-12758954D01*
X13876225Y-12758954D02*
X13904796Y-12758954D01*
X13904796Y-12758954D02*
X13923844Y-12768478D01*
X13923844Y-12768478D02*
X13933367Y-12778002D01*
X13933367Y-12778002D02*
X13942891Y-12797049D01*
X13942891Y-12797049D02*
X13942891Y-12844668D01*
X13942891Y-12844668D02*
X13933367Y-12863716D01*
X13933367Y-12863716D02*
X13923844Y-12873240D01*
X13923844Y-12873240D02*
X13904796Y-12882764D01*
X13904796Y-12882764D02*
X13847653Y-12882764D01*
X13847653Y-12882764D02*
X13828606Y-12873240D01*
X13828606Y-12873240D02*
X13819082Y-12863716D01*
X14038129Y-12882764D02*
X14076225Y-12882764D01*
X14076225Y-12882764D02*
X14095272Y-12873240D01*
X14095272Y-12873240D02*
X14104796Y-12863716D01*
X14104796Y-12863716D02*
X14123844Y-12835145D01*
X14123844Y-12835145D02*
X14133367Y-12797049D01*
X14133367Y-12797049D02*
X14133367Y-12720859D01*
X14133367Y-12720859D02*
X14123844Y-12701811D01*
X14123844Y-12701811D02*
X14114320Y-12692288D01*
X14114320Y-12692288D02*
X14095272Y-12682764D01*
X14095272Y-12682764D02*
X14057177Y-12682764D01*
X14057177Y-12682764D02*
X14038129Y-12692288D01*
X14038129Y-12692288D02*
X14028606Y-12701811D01*
X14028606Y-12701811D02*
X14019082Y-12720859D01*
X14019082Y-12720859D02*
X14019082Y-12768478D01*
X14019082Y-12768478D02*
X14028606Y-12787526D01*
X14028606Y-12787526D02*
X14038129Y-12797049D01*
X14038129Y-12797049D02*
X14057177Y-12806573D01*
X14057177Y-12806573D02*
X14095272Y-12806573D01*
X14095272Y-12806573D02*
X14114320Y-12797049D01*
X14114320Y-12797049D02*
X14123844Y-12787526D01*
X14123844Y-12787526D02*
X14133367Y-12768478D01*
X14304796Y-12749430D02*
X14304796Y-12882764D01*
X14257177Y-12673240D02*
X14209558Y-12816097D01*
X14209558Y-12816097D02*
X14333367Y-12816097D01*
X14400034Y-12682764D02*
X14400034Y-12720859D01*
X14476225Y-12682764D02*
X14476225Y-12720859D01*
X14771463Y-12958954D02*
X14761939Y-12949430D01*
X14761939Y-12949430D02*
X14742891Y-12920859D01*
X14742891Y-12920859D02*
X14733368Y-12901811D01*
X14733368Y-12901811D02*
X14723844Y-12873240D01*
X14723844Y-12873240D02*
X14714320Y-12825621D01*
X14714320Y-12825621D02*
X14714320Y-12787526D01*
X14714320Y-12787526D02*
X14723844Y-12739907D01*
X14723844Y-12739907D02*
X14733368Y-12711335D01*
X14733368Y-12711335D02*
X14742891Y-12692288D01*
X14742891Y-12692288D02*
X14761939Y-12663716D01*
X14761939Y-12663716D02*
X14771463Y-12654192D01*
X14952415Y-12882764D02*
X14838129Y-12882764D01*
X14895272Y-12882764D02*
X14895272Y-12682764D01*
X14895272Y-12682764D02*
X14876225Y-12711335D01*
X14876225Y-12711335D02*
X14857177Y-12730383D01*
X14857177Y-12730383D02*
X14838129Y-12739907D01*
X15142891Y-12882764D02*
X15028606Y-12882764D01*
X15085748Y-12882764D02*
X15085748Y-12682764D01*
X15085748Y-12682764D02*
X15066701Y-12711335D01*
X15066701Y-12711335D02*
X15047653Y-12730383D01*
X15047653Y-12730383D02*
X15028606Y-12739907D01*
X15314320Y-12682764D02*
X15276225Y-12682764D01*
X15276225Y-12682764D02*
X15257177Y-12692288D01*
X15257177Y-12692288D02*
X15247653Y-12701811D01*
X15247653Y-12701811D02*
X15228606Y-12730383D01*
X15228606Y-12730383D02*
X15219082Y-12768478D01*
X15219082Y-12768478D02*
X15219082Y-12844668D01*
X15219082Y-12844668D02*
X15228606Y-12863716D01*
X15228606Y-12863716D02*
X15238129Y-12873240D01*
X15238129Y-12873240D02*
X15257177Y-12882764D01*
X15257177Y-12882764D02*
X15295272Y-12882764D01*
X15295272Y-12882764D02*
X15314320Y-12873240D01*
X15314320Y-12873240D02*
X15323844Y-12863716D01*
X15323844Y-12863716D02*
X15333368Y-12844668D01*
X15333368Y-12844668D02*
X15333368Y-12797049D01*
X15333368Y-12797049D02*
X15323844Y-12778002D01*
X15323844Y-12778002D02*
X15314320Y-12768478D01*
X15314320Y-12768478D02*
X15295272Y-12758954D01*
X15295272Y-12758954D02*
X15257177Y-12758954D01*
X15257177Y-12758954D02*
X15238129Y-12768478D01*
X15238129Y-12768478D02*
X15228606Y-12778002D01*
X15228606Y-12778002D02*
X15219082Y-12797049D01*
X15571463Y-12882764D02*
X15571463Y-12682764D01*
X15657177Y-12882764D02*
X15657177Y-12778002D01*
X15657177Y-12778002D02*
X15647653Y-12758954D01*
X15647653Y-12758954D02*
X15628606Y-12749430D01*
X15628606Y-12749430D02*
X15600034Y-12749430D01*
X15600034Y-12749430D02*
X15580987Y-12758954D01*
X15580987Y-12758954D02*
X15571463Y-12768478D01*
X15780987Y-12882764D02*
X15761939Y-12873240D01*
X15761939Y-12873240D02*
X15752415Y-12863716D01*
X15752415Y-12863716D02*
X15742891Y-12844668D01*
X15742891Y-12844668D02*
X15742891Y-12787526D01*
X15742891Y-12787526D02*
X15752415Y-12768478D01*
X15752415Y-12768478D02*
X15761939Y-12758954D01*
X15761939Y-12758954D02*
X15780987Y-12749430D01*
X15780987Y-12749430D02*
X15809558Y-12749430D01*
X15809558Y-12749430D02*
X15828606Y-12758954D01*
X15828606Y-12758954D02*
X15838130Y-12768478D01*
X15838130Y-12768478D02*
X15847653Y-12787526D01*
X15847653Y-12787526D02*
X15847653Y-12844668D01*
X15847653Y-12844668D02*
X15838130Y-12863716D01*
X15838130Y-12863716D02*
X15828606Y-12873240D01*
X15828606Y-12873240D02*
X15809558Y-12882764D01*
X15809558Y-12882764D02*
X15780987Y-12882764D01*
X15961939Y-12882764D02*
X15942891Y-12873240D01*
X15942891Y-12873240D02*
X15933368Y-12854192D01*
X15933368Y-12854192D02*
X15933368Y-12682764D01*
X16114320Y-12873240D02*
X16095272Y-12882764D01*
X16095272Y-12882764D02*
X16057177Y-12882764D01*
X16057177Y-12882764D02*
X16038130Y-12873240D01*
X16038130Y-12873240D02*
X16028606Y-12854192D01*
X16028606Y-12854192D02*
X16028606Y-12778002D01*
X16028606Y-12778002D02*
X16038130Y-12758954D01*
X16038130Y-12758954D02*
X16057177Y-12749430D01*
X16057177Y-12749430D02*
X16095272Y-12749430D01*
X16095272Y-12749430D02*
X16114320Y-12758954D01*
X16114320Y-12758954D02*
X16123844Y-12778002D01*
X16123844Y-12778002D02*
X16123844Y-12797049D01*
X16123844Y-12797049D02*
X16028606Y-12816097D01*
X16200034Y-12873240D02*
X16219082Y-12882764D01*
X16219082Y-12882764D02*
X16257177Y-12882764D01*
X16257177Y-12882764D02*
X16276225Y-12873240D01*
X16276225Y-12873240D02*
X16285749Y-12854192D01*
X16285749Y-12854192D02*
X16285749Y-12844668D01*
X16285749Y-12844668D02*
X16276225Y-12825621D01*
X16276225Y-12825621D02*
X16257177Y-12816097D01*
X16257177Y-12816097D02*
X16228606Y-12816097D01*
X16228606Y-12816097D02*
X16209558Y-12806573D01*
X16209558Y-12806573D02*
X16200034Y-12787526D01*
X16200034Y-12787526D02*
X16200034Y-12778002D01*
X16200034Y-12778002D02*
X16209558Y-12758954D01*
X16209558Y-12758954D02*
X16228606Y-12749430D01*
X16228606Y-12749430D02*
X16257177Y-12749430D01*
X16257177Y-12749430D02*
X16276225Y-12758954D01*
X16352415Y-12958954D02*
X16361939Y-12949430D01*
X16361939Y-12949430D02*
X16380987Y-12920859D01*
X16380987Y-12920859D02*
X16390511Y-12901811D01*
X16390511Y-12901811D02*
X16400034Y-12873240D01*
X16400034Y-12873240D02*
X16409558Y-12825621D01*
X16409558Y-12825621D02*
X16409558Y-12787526D01*
X16409558Y-12787526D02*
X16400034Y-12739907D01*
X16400034Y-12739907D02*
X16390511Y-12711335D01*
X16390511Y-12711335D02*
X16380987Y-12692288D01*
X16380987Y-12692288D02*
X16361939Y-12663716D01*
X16361939Y-12663716D02*
X16352415Y-12654192D01*
M02*
