G04 #@! TF.GenerationSoftware,KiCad,Pcbnew,7.0.5*
G04 #@! TF.CreationDate,2023-07-17T11:56:54-04:00*
G04 #@! TF.ProjectId,Tadpole,54616470-6f6c-4652-9e6b-696361645f70,rev?*
G04 #@! TF.SameCoordinates,Original*
G04 #@! TF.FileFunction,Soldermask,Top*
G04 #@! TF.FilePolarity,Negative*
%FSLAX46Y46*%
G04 Gerber Fmt 4.6, Leading zero omitted, Abs format (unit mm)*
G04 Created by KiCad (PCBNEW 7.0.5) date 2023-07-17 11:56:54*
%MOMM*%
%LPD*%
G01*
G04 APERTURE LIST*
G04 Aperture macros list*
%AMRoundRect*
0 Rectangle with rounded corners*
0 $1 Rounding radius*
0 $2 $3 $4 $5 $6 $7 $8 $9 X,Y pos of 4 corners*
0 Add a 4 corners polygon primitive as box body*
4,1,4,$2,$3,$4,$5,$6,$7,$8,$9,$2,$3,0*
0 Add four circle primitives for the rounded corners*
1,1,$1+$1,$2,$3*
1,1,$1+$1,$4,$5*
1,1,$1+$1,$6,$7*
1,1,$1+$1,$8,$9*
0 Add four rect primitives between the rounded corners*
20,1,$1+$1,$2,$3,$4,$5,0*
20,1,$1+$1,$4,$5,$6,$7,0*
20,1,$1+$1,$6,$7,$8,$9,0*
20,1,$1+$1,$8,$9,$2,$3,0*%
G04 Aperture macros list end*
%ADD10C,1.800000*%
%ADD11O,1.800000X1.800000*%
%ADD12RoundRect,0.050000X-0.850000X0.850000X-0.850000X-0.850000X0.850000X-0.850000X0.850000X0.850000X0*%
%ADD13C,2.300000*%
%ADD14RoundRect,0.050000X0.850000X-0.850000X0.850000X0.850000X-0.850000X0.850000X-0.850000X-0.850000X0*%
%ADD15RoundRect,0.050000X-0.850000X-0.850000X0.850000X-0.850000X0.850000X0.850000X-0.850000X0.850000X0*%
G04 APERTURE END LIST*
D10*
X160731200Y-104013000D03*
D11*
X160731200Y-106553000D03*
D12*
X158191200Y-104013000D03*
X158191200Y-106553000D03*
D11*
X155651200Y-104013000D03*
X155651200Y-106553000D03*
X153111200Y-104013000D03*
X153111200Y-106553000D03*
D13*
X122000000Y-119000000D03*
D11*
X139573000Y-76073000D03*
X137033000Y-76073000D03*
D12*
X134493000Y-76073000D03*
X131953000Y-76073000D03*
D11*
X129413000Y-76073000D03*
X141743600Y-110337600D03*
X139203600Y-110337600D03*
X136663600Y-110337600D03*
X134123600Y-110337600D03*
X131583600Y-110337600D03*
X129043600Y-110337600D03*
X126503600Y-110337600D03*
X123963600Y-110337600D03*
X121423600Y-110337600D03*
D10*
X114503200Y-84963000D03*
D11*
X114503200Y-82423000D03*
D10*
X117043200Y-84963000D03*
X117043200Y-82423000D03*
X153131200Y-88327000D03*
D11*
X153131200Y-85787000D03*
D14*
X155671200Y-88327000D03*
X155671200Y-85787000D03*
D11*
X158211200Y-88327000D03*
X158211200Y-85787000D03*
X160751200Y-88327000D03*
X160751200Y-85787000D03*
D15*
X152597000Y-95397400D03*
D11*
X152597000Y-97937400D03*
D13*
X148000000Y-74000000D03*
D10*
X117043200Y-108864400D03*
D11*
X117043200Y-111404400D03*
D10*
X114503200Y-108864400D03*
X114503200Y-111404400D03*
D13*
X148000000Y-119000000D03*
D10*
X117815200Y-104521000D03*
X120355200Y-104521000D03*
X122895200Y-104521000D03*
X125435200Y-104521000D03*
X120355200Y-89281000D03*
X127975200Y-104521000D03*
X130515200Y-104521000D03*
X133055200Y-104521000D03*
X135595200Y-104521000D03*
X138135200Y-104521000D03*
X140675200Y-104521000D03*
X143215200Y-104521000D03*
X145755200Y-104521000D03*
X148295200Y-104521000D03*
X148295200Y-89281000D03*
X145755200Y-89281000D03*
X143215200Y-89281000D03*
X140675200Y-89281000D03*
X138135200Y-89281000D03*
X135595200Y-89281000D03*
X133055200Y-89281000D03*
X130515200Y-89281000D03*
X127975200Y-89281000D03*
X125435200Y-89281000D03*
X122895200Y-89281000D03*
X117815200Y-89281000D03*
X115275200Y-104521000D03*
X115275200Y-89281000D03*
D13*
X122000000Y-74000000D03*
D11*
X119999600Y-100076000D03*
D10*
X122539600Y-100076000D03*
X125079600Y-100076000D03*
X127619600Y-100076000D03*
X130159600Y-100076000D03*
X132699600Y-100076000D03*
X119999600Y-112776000D03*
D12*
X122539600Y-112776000D03*
D10*
X125079600Y-112776000D03*
X127619600Y-112776000D03*
X130159600Y-112776000D03*
D12*
X132699600Y-112776000D03*
D11*
X120101200Y-82524600D03*
D10*
X122641200Y-82524600D03*
X125181200Y-82524600D03*
X127721200Y-82524600D03*
X130261200Y-82524600D03*
X132801200Y-82524600D03*
X120101200Y-95224600D03*
D12*
X122641200Y-95224600D03*
D10*
X125181200Y-95224600D03*
X127721200Y-95224600D03*
X130261200Y-95224600D03*
D12*
X132801200Y-95224600D03*
D11*
X135976200Y-100076000D03*
D10*
X138516200Y-100076000D03*
X141056200Y-100076000D03*
X143596200Y-100076000D03*
X146136200Y-100076000D03*
X148676200Y-100076000D03*
X135976200Y-112776000D03*
D12*
X138516200Y-112776000D03*
D10*
X141056200Y-112776000D03*
X143596200Y-112776000D03*
X146136200Y-112776000D03*
D12*
X148676200Y-112776000D03*
D11*
X135976200Y-82524600D03*
D10*
X138516200Y-82524600D03*
X141056200Y-82524600D03*
X143596200Y-82524600D03*
X146136200Y-82524600D03*
X148676200Y-82524600D03*
X135976200Y-95224600D03*
D12*
X138516200Y-95224600D03*
D10*
X141056200Y-95224600D03*
X143596200Y-95224600D03*
X146136200Y-95224600D03*
D12*
X148676200Y-95224600D03*
M02*
