G04 #@! TF.GenerationSoftware,KiCad,Pcbnew,7.0.5*
G04 #@! TF.CreationDate,2023-07-17T11:56:54-04:00*
G04 #@! TF.ProjectId,Tadpole,54616470-6f6c-4652-9e6b-696361645f70,rev?*
G04 #@! TF.SameCoordinates,Original*
G04 #@! TF.FileFunction,Legend,Top*
G04 #@! TF.FilePolarity,Positive*
%FSLAX46Y46*%
G04 Gerber Fmt 4.6, Leading zero omitted, Abs format (unit mm)*
G04 Created by KiCad (PCBNEW 7.0.5) date 2023-07-17 11:56:54*
%MOMM*%
%LPD*%
G01*
G04 APERTURE LIST*
G04 Aperture macros list*
%AMRoundRect*
0 Rectangle with rounded corners*
0 $1 Rounding radius*
0 $2 $3 $4 $5 $6 $7 $8 $9 X,Y pos of 4 corners*
0 Add a 4 corners polygon primitive as box body*
4,1,4,$2,$3,$4,$5,$6,$7,$8,$9,$2,$3,0*
0 Add four circle primitives for the rounded corners*
1,1,$1+$1,$2,$3*
1,1,$1+$1,$4,$5*
1,1,$1+$1,$6,$7*
1,1,$1+$1,$8,$9*
0 Add four rect primitives between the rounded corners*
20,1,$1+$1,$2,$3,$4,$5,0*
20,1,$1+$1,$4,$5,$6,$7,0*
20,1,$1+$1,$6,$7,$8,$9,0*
20,1,$1+$1,$8,$9,$2,$3,0*%
G04 Aperture macros list end*
%ADD10C,0.125000*%
%ADD11C,0.150000*%
%ADD12C,0.200000*%
%ADD13C,0.100000*%
%ADD14C,0.120000*%
%ADD15C,1.800000*%
%ADD16O,1.800000X1.800000*%
%ADD17RoundRect,0.050000X-0.850000X0.850000X-0.850000X-0.850000X0.850000X-0.850000X0.850000X0.850000X0*%
%ADD18C,2.300000*%
%ADD19RoundRect,0.050000X0.850000X-0.850000X0.850000X0.850000X-0.850000X0.850000X-0.850000X-0.850000X0*%
%ADD20RoundRect,0.050000X-0.850000X-0.850000X0.850000X-0.850000X0.850000X0.850000X-0.850000X0.850000X0*%
G04 APERTURE END LIST*
D10*
X136413952Y-74166119D02*
X135842524Y-74166119D01*
X136128238Y-74166119D02*
X136128238Y-73166119D01*
X136128238Y-73166119D02*
X136033000Y-73308976D01*
X136033000Y-73308976D02*
X135937762Y-73404214D01*
X135937762Y-73404214D02*
X135842524Y-73451833D01*
X136794905Y-73261357D02*
X136842524Y-73213738D01*
X136842524Y-73213738D02*
X136937762Y-73166119D01*
X136937762Y-73166119D02*
X137175857Y-73166119D01*
X137175857Y-73166119D02*
X137271095Y-73213738D01*
X137271095Y-73213738D02*
X137318714Y-73261357D01*
X137318714Y-73261357D02*
X137366333Y-73356595D01*
X137366333Y-73356595D02*
X137366333Y-73451833D01*
X137366333Y-73451833D02*
X137318714Y-73594690D01*
X137318714Y-73594690D02*
X136747286Y-74166119D01*
X136747286Y-74166119D02*
X137366333Y-74166119D01*
X137652048Y-73166119D02*
X137985381Y-74166119D01*
X137985381Y-74166119D02*
X138318714Y-73166119D01*
X145684952Y-115314119D02*
X145113524Y-115314119D01*
X145399238Y-115314119D02*
X145399238Y-114314119D01*
X145399238Y-114314119D02*
X145304000Y-114456976D01*
X145304000Y-114456976D02*
X145208762Y-114552214D01*
X145208762Y-114552214D02*
X145113524Y-114599833D01*
X146065905Y-114409357D02*
X146113524Y-114361738D01*
X146113524Y-114361738D02*
X146208762Y-114314119D01*
X146208762Y-114314119D02*
X146446857Y-114314119D01*
X146446857Y-114314119D02*
X146542095Y-114361738D01*
X146542095Y-114361738D02*
X146589714Y-114409357D01*
X146589714Y-114409357D02*
X146637333Y-114504595D01*
X146637333Y-114504595D02*
X146637333Y-114599833D01*
X146637333Y-114599833D02*
X146589714Y-114742690D01*
X146589714Y-114742690D02*
X146018286Y-115314119D01*
X146018286Y-115314119D02*
X146637333Y-115314119D01*
X146923048Y-114314119D02*
X147256381Y-115314119D01*
X147256381Y-115314119D02*
X147589714Y-114314119D01*
X129682952Y-115441119D02*
X129111524Y-115441119D01*
X129397238Y-115441119D02*
X129397238Y-114441119D01*
X129397238Y-114441119D02*
X129302000Y-114583976D01*
X129302000Y-114583976D02*
X129206762Y-114679214D01*
X129206762Y-114679214D02*
X129111524Y-114726833D01*
X130063905Y-114536357D02*
X130111524Y-114488738D01*
X130111524Y-114488738D02*
X130206762Y-114441119D01*
X130206762Y-114441119D02*
X130444857Y-114441119D01*
X130444857Y-114441119D02*
X130540095Y-114488738D01*
X130540095Y-114488738D02*
X130587714Y-114536357D01*
X130587714Y-114536357D02*
X130635333Y-114631595D01*
X130635333Y-114631595D02*
X130635333Y-114726833D01*
X130635333Y-114726833D02*
X130587714Y-114869690D01*
X130587714Y-114869690D02*
X130016286Y-115441119D01*
X130016286Y-115441119D02*
X130635333Y-115441119D01*
X130921048Y-114441119D02*
X131254381Y-115441119D01*
X131254381Y-115441119D02*
X131587714Y-114441119D01*
X145684952Y-98169119D02*
X145113524Y-98169119D01*
X145399238Y-98169119D02*
X145399238Y-97169119D01*
X145399238Y-97169119D02*
X145304000Y-97311976D01*
X145304000Y-97311976D02*
X145208762Y-97407214D01*
X145208762Y-97407214D02*
X145113524Y-97454833D01*
X146065905Y-97264357D02*
X146113524Y-97216738D01*
X146113524Y-97216738D02*
X146208762Y-97169119D01*
X146208762Y-97169119D02*
X146446857Y-97169119D01*
X146446857Y-97169119D02*
X146542095Y-97216738D01*
X146542095Y-97216738D02*
X146589714Y-97264357D01*
X146589714Y-97264357D02*
X146637333Y-97359595D01*
X146637333Y-97359595D02*
X146637333Y-97454833D01*
X146637333Y-97454833D02*
X146589714Y-97597690D01*
X146589714Y-97597690D02*
X146018286Y-98169119D01*
X146018286Y-98169119D02*
X146637333Y-98169119D01*
X146923048Y-97169119D02*
X147256381Y-98169119D01*
X147256381Y-98169119D02*
X147589714Y-97169119D01*
X129301952Y-98169119D02*
X128730524Y-98169119D01*
X129016238Y-98169119D02*
X129016238Y-97169119D01*
X129016238Y-97169119D02*
X128921000Y-97311976D01*
X128921000Y-97311976D02*
X128825762Y-97407214D01*
X128825762Y-97407214D02*
X128730524Y-97454833D01*
X129682905Y-97264357D02*
X129730524Y-97216738D01*
X129730524Y-97216738D02*
X129825762Y-97169119D01*
X129825762Y-97169119D02*
X130063857Y-97169119D01*
X130063857Y-97169119D02*
X130159095Y-97216738D01*
X130159095Y-97216738D02*
X130206714Y-97264357D01*
X130206714Y-97264357D02*
X130254333Y-97359595D01*
X130254333Y-97359595D02*
X130254333Y-97454833D01*
X130254333Y-97454833D02*
X130206714Y-97597690D01*
X130206714Y-97597690D02*
X129635286Y-98169119D01*
X129635286Y-98169119D02*
X130254333Y-98169119D01*
X130540048Y-97169119D02*
X130873381Y-98169119D01*
X130873381Y-98169119D02*
X131206714Y-97169119D01*
D11*
X128892300Y-116713000D02*
X139077700Y-116713000D01*
X139077700Y-120472200D01*
X128892300Y-120472200D01*
X128892300Y-116713000D01*
X113538000Y-94615000D02*
X115824000Y-94615000D01*
X115824000Y-98679000D01*
X113538000Y-98679000D01*
X113538000Y-94615000D01*
D10*
X124714095Y-90914357D02*
X124761714Y-90866738D01*
X124761714Y-90866738D02*
X124856952Y-90819119D01*
X124856952Y-90819119D02*
X125095047Y-90819119D01*
X125095047Y-90819119D02*
X125190285Y-90866738D01*
X125190285Y-90866738D02*
X125237904Y-90914357D01*
X125237904Y-90914357D02*
X125285523Y-91009595D01*
X125285523Y-91009595D02*
X125285523Y-91104833D01*
X125285523Y-91104833D02*
X125237904Y-91247690D01*
X125237904Y-91247690D02*
X124666476Y-91819119D01*
X124666476Y-91819119D02*
X125285523Y-91819119D01*
X125666476Y-90914357D02*
X125714095Y-90866738D01*
X125714095Y-90866738D02*
X125809333Y-90819119D01*
X125809333Y-90819119D02*
X126047428Y-90819119D01*
X126047428Y-90819119D02*
X126142666Y-90866738D01*
X126142666Y-90866738D02*
X126190285Y-90914357D01*
X126190285Y-90914357D02*
X126237904Y-91009595D01*
X126237904Y-91009595D02*
X126237904Y-91104833D01*
X126237904Y-91104833D02*
X126190285Y-91247690D01*
X126190285Y-91247690D02*
X125618857Y-91819119D01*
X125618857Y-91819119D02*
X126237904Y-91819119D01*
X120681714Y-102868119D02*
X120110286Y-102868119D01*
X120396000Y-102868119D02*
X120396000Y-101868119D01*
X120396000Y-101868119D02*
X120300762Y-102010976D01*
X120300762Y-102010976D02*
X120205524Y-102106214D01*
X120205524Y-102106214D02*
X120110286Y-102153833D01*
X140398523Y-91819119D02*
X139827095Y-91819119D01*
X140112809Y-91819119D02*
X140112809Y-90819119D01*
X140112809Y-90819119D02*
X140017571Y-90961976D01*
X140017571Y-90961976D02*
X139922333Y-91057214D01*
X139922333Y-91057214D02*
X139827095Y-91104833D01*
X141255666Y-90819119D02*
X141065190Y-90819119D01*
X141065190Y-90819119D02*
X140969952Y-90866738D01*
X140969952Y-90866738D02*
X140922333Y-90914357D01*
X140922333Y-90914357D02*
X140827095Y-91057214D01*
X140827095Y-91057214D02*
X140779476Y-91247690D01*
X140779476Y-91247690D02*
X140779476Y-91628642D01*
X140779476Y-91628642D02*
X140827095Y-91723880D01*
X140827095Y-91723880D02*
X140874714Y-91771500D01*
X140874714Y-91771500D02*
X140969952Y-91819119D01*
X140969952Y-91819119D02*
X141160428Y-91819119D01*
X141160428Y-91819119D02*
X141255666Y-91771500D01*
X141255666Y-91771500D02*
X141303285Y-91723880D01*
X141303285Y-91723880D02*
X141350904Y-91628642D01*
X141350904Y-91628642D02*
X141350904Y-91390547D01*
X141350904Y-91390547D02*
X141303285Y-91295309D01*
X141303285Y-91295309D02*
X141255666Y-91247690D01*
X141255666Y-91247690D02*
X141160428Y-91200071D01*
X141160428Y-91200071D02*
X140969952Y-91200071D01*
X140969952Y-91200071D02*
X140874714Y-91247690D01*
X140874714Y-91247690D02*
X140827095Y-91295309D01*
X140827095Y-91295309D02*
X140779476Y-91390547D01*
X117808381Y-101868119D02*
X117903619Y-101868119D01*
X117903619Y-101868119D02*
X117998857Y-101915738D01*
X117998857Y-101915738D02*
X118046476Y-101963357D01*
X118046476Y-101963357D02*
X118094095Y-102058595D01*
X118094095Y-102058595D02*
X118141714Y-102249071D01*
X118141714Y-102249071D02*
X118141714Y-102487166D01*
X118141714Y-102487166D02*
X118094095Y-102677642D01*
X118094095Y-102677642D02*
X118046476Y-102772880D01*
X118046476Y-102772880D02*
X117998857Y-102820500D01*
X117998857Y-102820500D02*
X117903619Y-102868119D01*
X117903619Y-102868119D02*
X117808381Y-102868119D01*
X117808381Y-102868119D02*
X117713143Y-102820500D01*
X117713143Y-102820500D02*
X117665524Y-102772880D01*
X117665524Y-102772880D02*
X117617905Y-102677642D01*
X117617905Y-102677642D02*
X117570286Y-102487166D01*
X117570286Y-102487166D02*
X117570286Y-102249071D01*
X117570286Y-102249071D02*
X117617905Y-102058595D01*
X117617905Y-102058595D02*
X117665524Y-101963357D01*
X117665524Y-101963357D02*
X117713143Y-101915738D01*
X117713143Y-101915738D02*
X117808381Y-101868119D01*
X148145523Y-102868119D02*
X147574095Y-102868119D01*
X147859809Y-102868119D02*
X147859809Y-101868119D01*
X147859809Y-101868119D02*
X147764571Y-102010976D01*
X147764571Y-102010976D02*
X147669333Y-102106214D01*
X147669333Y-102106214D02*
X147574095Y-102153833D01*
X148526476Y-101963357D02*
X148574095Y-101915738D01*
X148574095Y-101915738D02*
X148669333Y-101868119D01*
X148669333Y-101868119D02*
X148907428Y-101868119D01*
X148907428Y-101868119D02*
X149002666Y-101915738D01*
X149002666Y-101915738D02*
X149050285Y-101963357D01*
X149050285Y-101963357D02*
X149097904Y-102058595D01*
X149097904Y-102058595D02*
X149097904Y-102153833D01*
X149097904Y-102153833D02*
X149050285Y-102296690D01*
X149050285Y-102296690D02*
X148478857Y-102868119D01*
X148478857Y-102868119D02*
X149097904Y-102868119D01*
X142938523Y-91819119D02*
X142367095Y-91819119D01*
X142652809Y-91819119D02*
X142652809Y-90819119D01*
X142652809Y-90819119D02*
X142557571Y-90961976D01*
X142557571Y-90961976D02*
X142462333Y-91057214D01*
X142462333Y-91057214D02*
X142367095Y-91104833D01*
X143843285Y-90819119D02*
X143367095Y-90819119D01*
X143367095Y-90819119D02*
X143319476Y-91295309D01*
X143319476Y-91295309D02*
X143367095Y-91247690D01*
X143367095Y-91247690D02*
X143462333Y-91200071D01*
X143462333Y-91200071D02*
X143700428Y-91200071D01*
X143700428Y-91200071D02*
X143795666Y-91247690D01*
X143795666Y-91247690D02*
X143843285Y-91295309D01*
X143843285Y-91295309D02*
X143890904Y-91390547D01*
X143890904Y-91390547D02*
X143890904Y-91628642D01*
X143890904Y-91628642D02*
X143843285Y-91723880D01*
X143843285Y-91723880D02*
X143795666Y-91771500D01*
X143795666Y-91771500D02*
X143700428Y-91819119D01*
X143700428Y-91819119D02*
X143462333Y-91819119D01*
X143462333Y-91819119D02*
X143367095Y-91771500D01*
X143367095Y-91771500D02*
X143319476Y-91723880D01*
X114427095Y-101915738D02*
X114331857Y-101868119D01*
X114331857Y-101868119D02*
X114189000Y-101868119D01*
X114189000Y-101868119D02*
X114046143Y-101915738D01*
X114046143Y-101915738D02*
X113950905Y-102010976D01*
X113950905Y-102010976D02*
X113903286Y-102106214D01*
X113903286Y-102106214D02*
X113855667Y-102296690D01*
X113855667Y-102296690D02*
X113855667Y-102439547D01*
X113855667Y-102439547D02*
X113903286Y-102630023D01*
X113903286Y-102630023D02*
X113950905Y-102725261D01*
X113950905Y-102725261D02*
X114046143Y-102820500D01*
X114046143Y-102820500D02*
X114189000Y-102868119D01*
X114189000Y-102868119D02*
X114284238Y-102868119D01*
X114284238Y-102868119D02*
X114427095Y-102820500D01*
X114427095Y-102820500D02*
X114474714Y-102772880D01*
X114474714Y-102772880D02*
X114474714Y-102439547D01*
X114474714Y-102439547D02*
X114284238Y-102439547D01*
X114903286Y-102868119D02*
X114903286Y-101868119D01*
X114903286Y-101868119D02*
X115474714Y-102868119D01*
X115474714Y-102868119D02*
X115474714Y-101868119D01*
X115950905Y-102868119D02*
X115950905Y-101868119D01*
X115950905Y-101868119D02*
X116189000Y-101868119D01*
X116189000Y-101868119D02*
X116331857Y-101915738D01*
X116331857Y-101915738D02*
X116427095Y-102010976D01*
X116427095Y-102010976D02*
X116474714Y-102106214D01*
X116474714Y-102106214D02*
X116522333Y-102296690D01*
X116522333Y-102296690D02*
X116522333Y-102439547D01*
X116522333Y-102439547D02*
X116474714Y-102630023D01*
X116474714Y-102630023D02*
X116427095Y-102725261D01*
X116427095Y-102725261D02*
X116331857Y-102820500D01*
X116331857Y-102820500D02*
X116189000Y-102868119D01*
X116189000Y-102868119D02*
X115950905Y-102868119D01*
X133159476Y-101868119D02*
X132969000Y-101868119D01*
X132969000Y-101868119D02*
X132873762Y-101915738D01*
X132873762Y-101915738D02*
X132826143Y-101963357D01*
X132826143Y-101963357D02*
X132730905Y-102106214D01*
X132730905Y-102106214D02*
X132683286Y-102296690D01*
X132683286Y-102296690D02*
X132683286Y-102677642D01*
X132683286Y-102677642D02*
X132730905Y-102772880D01*
X132730905Y-102772880D02*
X132778524Y-102820500D01*
X132778524Y-102820500D02*
X132873762Y-102868119D01*
X132873762Y-102868119D02*
X133064238Y-102868119D01*
X133064238Y-102868119D02*
X133159476Y-102820500D01*
X133159476Y-102820500D02*
X133207095Y-102772880D01*
X133207095Y-102772880D02*
X133254714Y-102677642D01*
X133254714Y-102677642D02*
X133254714Y-102439547D01*
X133254714Y-102439547D02*
X133207095Y-102344309D01*
X133207095Y-102344309D02*
X133159476Y-102296690D01*
X133159476Y-102296690D02*
X133064238Y-102249071D01*
X133064238Y-102249071D02*
X132873762Y-102249071D01*
X132873762Y-102249071D02*
X132778524Y-102296690D01*
X132778524Y-102296690D02*
X132730905Y-102344309D01*
X132730905Y-102344309D02*
X132683286Y-102439547D01*
X148145523Y-91819119D02*
X147574095Y-91819119D01*
X147859809Y-91819119D02*
X147859809Y-90819119D01*
X147859809Y-90819119D02*
X147764571Y-90961976D01*
X147764571Y-90961976D02*
X147669333Y-91057214D01*
X147669333Y-91057214D02*
X147574095Y-91104833D01*
X148478857Y-90819119D02*
X149097904Y-90819119D01*
X149097904Y-90819119D02*
X148764571Y-91200071D01*
X148764571Y-91200071D02*
X148907428Y-91200071D01*
X148907428Y-91200071D02*
X149002666Y-91247690D01*
X149002666Y-91247690D02*
X149050285Y-91295309D01*
X149050285Y-91295309D02*
X149097904Y-91390547D01*
X149097904Y-91390547D02*
X149097904Y-91628642D01*
X149097904Y-91628642D02*
X149050285Y-91723880D01*
X149050285Y-91723880D02*
X149002666Y-91771500D01*
X149002666Y-91771500D02*
X148907428Y-91819119D01*
X148907428Y-91819119D02*
X148621714Y-91819119D01*
X148621714Y-91819119D02*
X148526476Y-91771500D01*
X148526476Y-91771500D02*
X148478857Y-91723880D01*
X128521199Y-107703709D02*
X128664056Y-107751328D01*
X128664056Y-107751328D02*
X128711675Y-107798947D01*
X128711675Y-107798947D02*
X128759294Y-107894185D01*
X128759294Y-107894185D02*
X128759294Y-108037042D01*
X128759294Y-108037042D02*
X128711675Y-108132280D01*
X128711675Y-108132280D02*
X128664056Y-108179900D01*
X128664056Y-108179900D02*
X128568818Y-108227519D01*
X128568818Y-108227519D02*
X128187866Y-108227519D01*
X128187866Y-108227519D02*
X128187866Y-107227519D01*
X128187866Y-107227519D02*
X128521199Y-107227519D01*
X128521199Y-107227519D02*
X128616437Y-107275138D01*
X128616437Y-107275138D02*
X128664056Y-107322757D01*
X128664056Y-107322757D02*
X128711675Y-107417995D01*
X128711675Y-107417995D02*
X128711675Y-107513233D01*
X128711675Y-107513233D02*
X128664056Y-107608471D01*
X128664056Y-107608471D02*
X128616437Y-107656090D01*
X128616437Y-107656090D02*
X128521199Y-107703709D01*
X128521199Y-107703709D02*
X128187866Y-107703709D01*
X129330723Y-108227519D02*
X129235485Y-108179900D01*
X129235485Y-108179900D02*
X129187866Y-108084661D01*
X129187866Y-108084661D02*
X129187866Y-107227519D01*
X130140247Y-107560852D02*
X130140247Y-108227519D01*
X129711676Y-107560852D02*
X129711676Y-108084661D01*
X129711676Y-108084661D02*
X129759295Y-108179900D01*
X129759295Y-108179900D02*
X129854533Y-108227519D01*
X129854533Y-108227519D02*
X129997390Y-108227519D01*
X129997390Y-108227519D02*
X130092628Y-108179900D01*
X130092628Y-108179900D02*
X130140247Y-108132280D01*
X130997390Y-108179900D02*
X130902152Y-108227519D01*
X130902152Y-108227519D02*
X130711676Y-108227519D01*
X130711676Y-108227519D02*
X130616438Y-108179900D01*
X130616438Y-108179900D02*
X130568819Y-108084661D01*
X130568819Y-108084661D02*
X130568819Y-107703709D01*
X130568819Y-107703709D02*
X130616438Y-107608471D01*
X130616438Y-107608471D02*
X130711676Y-107560852D01*
X130711676Y-107560852D02*
X130902152Y-107560852D01*
X130902152Y-107560852D02*
X130997390Y-107608471D01*
X130997390Y-107608471D02*
X131045009Y-107703709D01*
X131045009Y-107703709D02*
X131045009Y-107798947D01*
X131045009Y-107798947D02*
X130568819Y-107894185D01*
X131330724Y-107560852D02*
X131711676Y-107560852D01*
X131473581Y-107227519D02*
X131473581Y-108084661D01*
X131473581Y-108084661D02*
X131521200Y-108179900D01*
X131521200Y-108179900D02*
X131616438Y-108227519D01*
X131616438Y-108227519D02*
X131711676Y-108227519D01*
X132187867Y-108227519D02*
X132092629Y-108179900D01*
X132092629Y-108179900D02*
X132045010Y-108132280D01*
X132045010Y-108132280D02*
X131997391Y-108037042D01*
X131997391Y-108037042D02*
X131997391Y-107751328D01*
X131997391Y-107751328D02*
X132045010Y-107656090D01*
X132045010Y-107656090D02*
X132092629Y-107608471D01*
X132092629Y-107608471D02*
X132187867Y-107560852D01*
X132187867Y-107560852D02*
X132330724Y-107560852D01*
X132330724Y-107560852D02*
X132425962Y-107608471D01*
X132425962Y-107608471D02*
X132473581Y-107656090D01*
X132473581Y-107656090D02*
X132521200Y-107751328D01*
X132521200Y-107751328D02*
X132521200Y-108037042D01*
X132521200Y-108037042D02*
X132473581Y-108132280D01*
X132473581Y-108132280D02*
X132425962Y-108179900D01*
X132425962Y-108179900D02*
X132330724Y-108227519D01*
X132330724Y-108227519D02*
X132187867Y-108227519D01*
X133092629Y-108227519D02*
X132997391Y-108179900D01*
X132997391Y-108179900D02*
X132949772Y-108132280D01*
X132949772Y-108132280D02*
X132902153Y-108037042D01*
X132902153Y-108037042D02*
X132902153Y-107751328D01*
X132902153Y-107751328D02*
X132949772Y-107656090D01*
X132949772Y-107656090D02*
X132997391Y-107608471D01*
X132997391Y-107608471D02*
X133092629Y-107560852D01*
X133092629Y-107560852D02*
X133235486Y-107560852D01*
X133235486Y-107560852D02*
X133330724Y-107608471D01*
X133330724Y-107608471D02*
X133378343Y-107656090D01*
X133378343Y-107656090D02*
X133425962Y-107751328D01*
X133425962Y-107751328D02*
X133425962Y-108037042D01*
X133425962Y-108037042D02*
X133378343Y-108132280D01*
X133378343Y-108132280D02*
X133330724Y-108179900D01*
X133330724Y-108179900D02*
X133235486Y-108227519D01*
X133235486Y-108227519D02*
X133092629Y-108227519D01*
X133711677Y-107560852D02*
X134092629Y-107560852D01*
X133854534Y-107227519D02*
X133854534Y-108084661D01*
X133854534Y-108084661D02*
X133902153Y-108179900D01*
X133902153Y-108179900D02*
X133997391Y-108227519D01*
X133997391Y-108227519D02*
X134092629Y-108227519D01*
X134425963Y-108227519D02*
X134425963Y-107227519D01*
X134854534Y-108227519D02*
X134854534Y-107703709D01*
X134854534Y-107703709D02*
X134806915Y-107608471D01*
X134806915Y-107608471D02*
X134711677Y-107560852D01*
X134711677Y-107560852D02*
X134568820Y-107560852D01*
X134568820Y-107560852D02*
X134473582Y-107608471D01*
X134473582Y-107608471D02*
X134425963Y-107656090D01*
D12*
X129948490Y-118148400D02*
X130091347Y-118196019D01*
X130091347Y-118196019D02*
X130329442Y-118196019D01*
X130329442Y-118196019D02*
X130424680Y-118148400D01*
X130424680Y-118148400D02*
X130472299Y-118100780D01*
X130472299Y-118100780D02*
X130519918Y-118005542D01*
X130519918Y-118005542D02*
X130519918Y-117910304D01*
X130519918Y-117910304D02*
X130472299Y-117815066D01*
X130472299Y-117815066D02*
X130424680Y-117767447D01*
X130424680Y-117767447D02*
X130329442Y-117719828D01*
X130329442Y-117719828D02*
X130138966Y-117672209D01*
X130138966Y-117672209D02*
X130043728Y-117624590D01*
X130043728Y-117624590D02*
X129996109Y-117576971D01*
X129996109Y-117576971D02*
X129948490Y-117481733D01*
X129948490Y-117481733D02*
X129948490Y-117386495D01*
X129948490Y-117386495D02*
X129996109Y-117291257D01*
X129996109Y-117291257D02*
X130043728Y-117243638D01*
X130043728Y-117243638D02*
X130138966Y-117196019D01*
X130138966Y-117196019D02*
X130377061Y-117196019D01*
X130377061Y-117196019D02*
X130519918Y-117243638D01*
X130805633Y-117196019D02*
X131377061Y-117196019D01*
X131091347Y-118196019D02*
X131091347Y-117196019D01*
X132281823Y-118196019D02*
X131948490Y-117719828D01*
X131710395Y-118196019D02*
X131710395Y-117196019D01*
X131710395Y-117196019D02*
X132091347Y-117196019D01*
X132091347Y-117196019D02*
X132186585Y-117243638D01*
X132186585Y-117243638D02*
X132234204Y-117291257D01*
X132234204Y-117291257D02*
X132281823Y-117386495D01*
X132281823Y-117386495D02*
X132281823Y-117529352D01*
X132281823Y-117529352D02*
X132234204Y-117624590D01*
X132234204Y-117624590D02*
X132186585Y-117672209D01*
X132186585Y-117672209D02*
X132091347Y-117719828D01*
X132091347Y-117719828D02*
X131710395Y-117719828D01*
X132710395Y-118196019D02*
X132710395Y-117196019D01*
X133186585Y-118196019D02*
X133186585Y-117196019D01*
X133186585Y-117196019D02*
X133424680Y-117196019D01*
X133424680Y-117196019D02*
X133567537Y-117243638D01*
X133567537Y-117243638D02*
X133662775Y-117338876D01*
X133662775Y-117338876D02*
X133710394Y-117434114D01*
X133710394Y-117434114D02*
X133758013Y-117624590D01*
X133758013Y-117624590D02*
X133758013Y-117767447D01*
X133758013Y-117767447D02*
X133710394Y-117957923D01*
X133710394Y-117957923D02*
X133662775Y-118053161D01*
X133662775Y-118053161D02*
X133567537Y-118148400D01*
X133567537Y-118148400D02*
X133424680Y-118196019D01*
X133424680Y-118196019D02*
X133186585Y-118196019D01*
X134567537Y-118148400D02*
X134472299Y-118196019D01*
X134472299Y-118196019D02*
X134281823Y-118196019D01*
X134281823Y-118196019D02*
X134186585Y-118148400D01*
X134186585Y-118148400D02*
X134138966Y-118053161D01*
X134138966Y-118053161D02*
X134138966Y-117672209D01*
X134138966Y-117672209D02*
X134186585Y-117576971D01*
X134186585Y-117576971D02*
X134281823Y-117529352D01*
X134281823Y-117529352D02*
X134472299Y-117529352D01*
X134472299Y-117529352D02*
X134567537Y-117576971D01*
X134567537Y-117576971D02*
X134615156Y-117672209D01*
X134615156Y-117672209D02*
X134615156Y-117767447D01*
X134615156Y-117767447D02*
X134138966Y-117862685D01*
X136281823Y-118196019D02*
X135805633Y-118196019D01*
X135805633Y-118196019D02*
X135805633Y-117196019D01*
X137043728Y-118196019D02*
X137043728Y-117672209D01*
X137043728Y-117672209D02*
X136996109Y-117576971D01*
X136996109Y-117576971D02*
X136900871Y-117529352D01*
X136900871Y-117529352D02*
X136710395Y-117529352D01*
X136710395Y-117529352D02*
X136615157Y-117576971D01*
X137043728Y-118148400D02*
X136948490Y-118196019D01*
X136948490Y-118196019D02*
X136710395Y-118196019D01*
X136710395Y-118196019D02*
X136615157Y-118148400D01*
X136615157Y-118148400D02*
X136567538Y-118053161D01*
X136567538Y-118053161D02*
X136567538Y-117957923D01*
X136567538Y-117957923D02*
X136615157Y-117862685D01*
X136615157Y-117862685D02*
X136710395Y-117815066D01*
X136710395Y-117815066D02*
X136948490Y-117815066D01*
X136948490Y-117815066D02*
X137043728Y-117767447D01*
X137519919Y-118196019D02*
X137519919Y-117196019D01*
X137519919Y-117576971D02*
X137615157Y-117529352D01*
X137615157Y-117529352D02*
X137805633Y-117529352D01*
X137805633Y-117529352D02*
X137900871Y-117576971D01*
X137900871Y-117576971D02*
X137948490Y-117624590D01*
X137948490Y-117624590D02*
X137996109Y-117719828D01*
X137996109Y-117719828D02*
X137996109Y-118005542D01*
X137996109Y-118005542D02*
X137948490Y-118100780D01*
X137948490Y-118100780D02*
X137900871Y-118148400D01*
X137900871Y-118148400D02*
X137805633Y-118196019D01*
X137805633Y-118196019D02*
X137615157Y-118196019D01*
X137615157Y-118196019D02*
X137519919Y-118148400D01*
X129234204Y-118806019D02*
X129805632Y-118806019D01*
X129519918Y-119806019D02*
X129519918Y-118806019D01*
X130567537Y-119806019D02*
X130567537Y-119282209D01*
X130567537Y-119282209D02*
X130519918Y-119186971D01*
X130519918Y-119186971D02*
X130424680Y-119139352D01*
X130424680Y-119139352D02*
X130234204Y-119139352D01*
X130234204Y-119139352D02*
X130138966Y-119186971D01*
X130567537Y-119758400D02*
X130472299Y-119806019D01*
X130472299Y-119806019D02*
X130234204Y-119806019D01*
X130234204Y-119806019D02*
X130138966Y-119758400D01*
X130138966Y-119758400D02*
X130091347Y-119663161D01*
X130091347Y-119663161D02*
X130091347Y-119567923D01*
X130091347Y-119567923D02*
X130138966Y-119472685D01*
X130138966Y-119472685D02*
X130234204Y-119425066D01*
X130234204Y-119425066D02*
X130472299Y-119425066D01*
X130472299Y-119425066D02*
X130567537Y-119377447D01*
X131472299Y-119806019D02*
X131472299Y-118806019D01*
X131472299Y-119758400D02*
X131377061Y-119806019D01*
X131377061Y-119806019D02*
X131186585Y-119806019D01*
X131186585Y-119806019D02*
X131091347Y-119758400D01*
X131091347Y-119758400D02*
X131043728Y-119710780D01*
X131043728Y-119710780D02*
X130996109Y-119615542D01*
X130996109Y-119615542D02*
X130996109Y-119329828D01*
X130996109Y-119329828D02*
X131043728Y-119234590D01*
X131043728Y-119234590D02*
X131091347Y-119186971D01*
X131091347Y-119186971D02*
X131186585Y-119139352D01*
X131186585Y-119139352D02*
X131377061Y-119139352D01*
X131377061Y-119139352D02*
X131472299Y-119186971D01*
X131948490Y-119139352D02*
X131948490Y-120139352D01*
X131948490Y-119186971D02*
X132043728Y-119139352D01*
X132043728Y-119139352D02*
X132234204Y-119139352D01*
X132234204Y-119139352D02*
X132329442Y-119186971D01*
X132329442Y-119186971D02*
X132377061Y-119234590D01*
X132377061Y-119234590D02*
X132424680Y-119329828D01*
X132424680Y-119329828D02*
X132424680Y-119615542D01*
X132424680Y-119615542D02*
X132377061Y-119710780D01*
X132377061Y-119710780D02*
X132329442Y-119758400D01*
X132329442Y-119758400D02*
X132234204Y-119806019D01*
X132234204Y-119806019D02*
X132043728Y-119806019D01*
X132043728Y-119806019D02*
X131948490Y-119758400D01*
X132996109Y-119806019D02*
X132900871Y-119758400D01*
X132900871Y-119758400D02*
X132853252Y-119710780D01*
X132853252Y-119710780D02*
X132805633Y-119615542D01*
X132805633Y-119615542D02*
X132805633Y-119329828D01*
X132805633Y-119329828D02*
X132853252Y-119234590D01*
X132853252Y-119234590D02*
X132900871Y-119186971D01*
X132900871Y-119186971D02*
X132996109Y-119139352D01*
X132996109Y-119139352D02*
X133138966Y-119139352D01*
X133138966Y-119139352D02*
X133234204Y-119186971D01*
X133234204Y-119186971D02*
X133281823Y-119234590D01*
X133281823Y-119234590D02*
X133329442Y-119329828D01*
X133329442Y-119329828D02*
X133329442Y-119615542D01*
X133329442Y-119615542D02*
X133281823Y-119710780D01*
X133281823Y-119710780D02*
X133234204Y-119758400D01*
X133234204Y-119758400D02*
X133138966Y-119806019D01*
X133138966Y-119806019D02*
X132996109Y-119806019D01*
X133900871Y-119806019D02*
X133805633Y-119758400D01*
X133805633Y-119758400D02*
X133758014Y-119663161D01*
X133758014Y-119663161D02*
X133758014Y-118806019D01*
X134662776Y-119758400D02*
X134567538Y-119806019D01*
X134567538Y-119806019D02*
X134377062Y-119806019D01*
X134377062Y-119806019D02*
X134281824Y-119758400D01*
X134281824Y-119758400D02*
X134234205Y-119663161D01*
X134234205Y-119663161D02*
X134234205Y-119282209D01*
X134234205Y-119282209D02*
X134281824Y-119186971D01*
X134281824Y-119186971D02*
X134377062Y-119139352D01*
X134377062Y-119139352D02*
X134567538Y-119139352D01*
X134567538Y-119139352D02*
X134662776Y-119186971D01*
X134662776Y-119186971D02*
X134710395Y-119282209D01*
X134710395Y-119282209D02*
X134710395Y-119377447D01*
X134710395Y-119377447D02*
X134234205Y-119472685D01*
X135805634Y-119139352D02*
X136043729Y-119806019D01*
X136043729Y-119806019D02*
X136281824Y-119139352D01*
X137186586Y-119806019D02*
X136615158Y-119806019D01*
X136900872Y-119806019D02*
X136900872Y-118806019D01*
X136900872Y-118806019D02*
X136805634Y-118948876D01*
X136805634Y-118948876D02*
X136710396Y-119044114D01*
X136710396Y-119044114D02*
X136615158Y-119091733D01*
X137615158Y-119710780D02*
X137662777Y-119758400D01*
X137662777Y-119758400D02*
X137615158Y-119806019D01*
X137615158Y-119806019D02*
X137567539Y-119758400D01*
X137567539Y-119758400D02*
X137615158Y-119710780D01*
X137615158Y-119710780D02*
X137615158Y-119806019D01*
X138281824Y-118806019D02*
X138377062Y-118806019D01*
X138377062Y-118806019D02*
X138472300Y-118853638D01*
X138472300Y-118853638D02*
X138519919Y-118901257D01*
X138519919Y-118901257D02*
X138567538Y-118996495D01*
X138567538Y-118996495D02*
X138615157Y-119186971D01*
X138615157Y-119186971D02*
X138615157Y-119425066D01*
X138615157Y-119425066D02*
X138567538Y-119615542D01*
X138567538Y-119615542D02*
X138519919Y-119710780D01*
X138519919Y-119710780D02*
X138472300Y-119758400D01*
X138472300Y-119758400D02*
X138377062Y-119806019D01*
X138377062Y-119806019D02*
X138281824Y-119806019D01*
X138281824Y-119806019D02*
X138186586Y-119758400D01*
X138186586Y-119758400D02*
X138138967Y-119710780D01*
X138138967Y-119710780D02*
X138091348Y-119615542D01*
X138091348Y-119615542D02*
X138043729Y-119425066D01*
X138043729Y-119425066D02*
X138043729Y-119186971D01*
X138043729Y-119186971D02*
X138091348Y-118996495D01*
X138091348Y-118996495D02*
X138138967Y-118901257D01*
X138138967Y-118901257D02*
X138186586Y-118853638D01*
X138186586Y-118853638D02*
X138281824Y-118806019D01*
D10*
X128206476Y-102201452D02*
X128206476Y-102868119D01*
X127968381Y-101820500D02*
X127730286Y-102534785D01*
X127730286Y-102534785D02*
X128349333Y-102534785D01*
X125142667Y-101868119D02*
X125761714Y-101868119D01*
X125761714Y-101868119D02*
X125428381Y-102249071D01*
X125428381Y-102249071D02*
X125571238Y-102249071D01*
X125571238Y-102249071D02*
X125666476Y-102296690D01*
X125666476Y-102296690D02*
X125714095Y-102344309D01*
X125714095Y-102344309D02*
X125761714Y-102439547D01*
X125761714Y-102439547D02*
X125761714Y-102677642D01*
X125761714Y-102677642D02*
X125714095Y-102772880D01*
X125714095Y-102772880D02*
X125666476Y-102820500D01*
X125666476Y-102820500D02*
X125571238Y-102868119D01*
X125571238Y-102868119D02*
X125285524Y-102868119D01*
X125285524Y-102868119D02*
X125190286Y-102820500D01*
X125190286Y-102820500D02*
X125142667Y-102772880D01*
X118919810Y-90819119D02*
X119538857Y-90819119D01*
X119538857Y-90819119D02*
X119205524Y-91200071D01*
X119205524Y-91200071D02*
X119348381Y-91200071D01*
X119348381Y-91200071D02*
X119443619Y-91247690D01*
X119443619Y-91247690D02*
X119491238Y-91295309D01*
X119491238Y-91295309D02*
X119538857Y-91390547D01*
X119538857Y-91390547D02*
X119538857Y-91628642D01*
X119538857Y-91628642D02*
X119491238Y-91723880D01*
X119491238Y-91723880D02*
X119443619Y-91771500D01*
X119443619Y-91771500D02*
X119348381Y-91819119D01*
X119348381Y-91819119D02*
X119062667Y-91819119D01*
X119062667Y-91819119D02*
X118967429Y-91771500D01*
X118967429Y-91771500D02*
X118919810Y-91723880D01*
X119967429Y-91723880D02*
X120015048Y-91771500D01*
X120015048Y-91771500D02*
X119967429Y-91819119D01*
X119967429Y-91819119D02*
X119919810Y-91771500D01*
X119919810Y-91771500D02*
X119967429Y-91723880D01*
X119967429Y-91723880D02*
X119967429Y-91819119D01*
X120348381Y-90819119D02*
X120967428Y-90819119D01*
X120967428Y-90819119D02*
X120634095Y-91200071D01*
X120634095Y-91200071D02*
X120776952Y-91200071D01*
X120776952Y-91200071D02*
X120872190Y-91247690D01*
X120872190Y-91247690D02*
X120919809Y-91295309D01*
X120919809Y-91295309D02*
X120967428Y-91390547D01*
X120967428Y-91390547D02*
X120967428Y-91628642D01*
X120967428Y-91628642D02*
X120919809Y-91723880D01*
X120919809Y-91723880D02*
X120872190Y-91771500D01*
X120872190Y-91771500D02*
X120776952Y-91819119D01*
X120776952Y-91819119D02*
X120491238Y-91819119D01*
X120491238Y-91819119D02*
X120396000Y-91771500D01*
X120396000Y-91771500D02*
X120348381Y-91723880D01*
X121253143Y-90819119D02*
X121586476Y-91819119D01*
X121586476Y-91819119D02*
X121919809Y-90819119D01*
X137858523Y-91819119D02*
X137287095Y-91819119D01*
X137572809Y-91819119D02*
X137572809Y-90819119D01*
X137572809Y-90819119D02*
X137477571Y-90961976D01*
X137477571Y-90961976D02*
X137382333Y-91057214D01*
X137382333Y-91057214D02*
X137287095Y-91104833D01*
X138191857Y-90819119D02*
X138858523Y-90819119D01*
X138858523Y-90819119D02*
X138429952Y-91819119D01*
X122174095Y-90914357D02*
X122221714Y-90866738D01*
X122221714Y-90866738D02*
X122316952Y-90819119D01*
X122316952Y-90819119D02*
X122555047Y-90819119D01*
X122555047Y-90819119D02*
X122650285Y-90866738D01*
X122650285Y-90866738D02*
X122697904Y-90914357D01*
X122697904Y-90914357D02*
X122745523Y-91009595D01*
X122745523Y-91009595D02*
X122745523Y-91104833D01*
X122745523Y-91104833D02*
X122697904Y-91247690D01*
X122697904Y-91247690D02*
X122126476Y-91819119D01*
X122126476Y-91819119D02*
X122745523Y-91819119D01*
X123078857Y-90819119D02*
X123697904Y-90819119D01*
X123697904Y-90819119D02*
X123364571Y-91200071D01*
X123364571Y-91200071D02*
X123507428Y-91200071D01*
X123507428Y-91200071D02*
X123602666Y-91247690D01*
X123602666Y-91247690D02*
X123650285Y-91295309D01*
X123650285Y-91295309D02*
X123697904Y-91390547D01*
X123697904Y-91390547D02*
X123697904Y-91628642D01*
X123697904Y-91628642D02*
X123650285Y-91723880D01*
X123650285Y-91723880D02*
X123602666Y-91771500D01*
X123602666Y-91771500D02*
X123507428Y-91819119D01*
X123507428Y-91819119D02*
X123221714Y-91819119D01*
X123221714Y-91819119D02*
X123126476Y-91771500D01*
X123126476Y-91771500D02*
X123078857Y-91723880D01*
X135175667Y-101868119D02*
X135842333Y-101868119D01*
X135842333Y-101868119D02*
X135413762Y-102868119D01*
X137953762Y-102296690D02*
X137858524Y-102249071D01*
X137858524Y-102249071D02*
X137810905Y-102201452D01*
X137810905Y-102201452D02*
X137763286Y-102106214D01*
X137763286Y-102106214D02*
X137763286Y-102058595D01*
X137763286Y-102058595D02*
X137810905Y-101963357D01*
X137810905Y-101963357D02*
X137858524Y-101915738D01*
X137858524Y-101915738D02*
X137953762Y-101868119D01*
X137953762Y-101868119D02*
X138144238Y-101868119D01*
X138144238Y-101868119D02*
X138239476Y-101915738D01*
X138239476Y-101915738D02*
X138287095Y-101963357D01*
X138287095Y-101963357D02*
X138334714Y-102058595D01*
X138334714Y-102058595D02*
X138334714Y-102106214D01*
X138334714Y-102106214D02*
X138287095Y-102201452D01*
X138287095Y-102201452D02*
X138239476Y-102249071D01*
X138239476Y-102249071D02*
X138144238Y-102296690D01*
X138144238Y-102296690D02*
X137953762Y-102296690D01*
X137953762Y-102296690D02*
X137858524Y-102344309D01*
X137858524Y-102344309D02*
X137810905Y-102391928D01*
X137810905Y-102391928D02*
X137763286Y-102487166D01*
X137763286Y-102487166D02*
X137763286Y-102677642D01*
X137763286Y-102677642D02*
X137810905Y-102772880D01*
X137810905Y-102772880D02*
X137858524Y-102820500D01*
X137858524Y-102820500D02*
X137953762Y-102868119D01*
X137953762Y-102868119D02*
X138144238Y-102868119D01*
X138144238Y-102868119D02*
X138239476Y-102820500D01*
X138239476Y-102820500D02*
X138287095Y-102772880D01*
X138287095Y-102772880D02*
X138334714Y-102677642D01*
X138334714Y-102677642D02*
X138334714Y-102487166D01*
X138334714Y-102487166D02*
X138287095Y-102391928D01*
X138287095Y-102391928D02*
X138239476Y-102344309D01*
X138239476Y-102344309D02*
X138144238Y-102296690D01*
X114165191Y-90819119D02*
X114498524Y-91819119D01*
X114498524Y-91819119D02*
X114831857Y-90819119D01*
X115165191Y-91819119D02*
X115165191Y-91152452D01*
X115165191Y-90819119D02*
X115117572Y-90866738D01*
X115117572Y-90866738D02*
X115165191Y-90914357D01*
X115165191Y-90914357D02*
X115212810Y-90866738D01*
X115212810Y-90866738D02*
X115165191Y-90819119D01*
X115165191Y-90819119D02*
X115165191Y-90914357D01*
X115641381Y-91152452D02*
X115641381Y-91819119D01*
X115641381Y-91247690D02*
X115689000Y-91200071D01*
X115689000Y-91200071D02*
X115784238Y-91152452D01*
X115784238Y-91152452D02*
X115927095Y-91152452D01*
X115927095Y-91152452D02*
X116022333Y-91200071D01*
X116022333Y-91200071D02*
X116069952Y-91295309D01*
X116069952Y-91295309D02*
X116069952Y-91819119D01*
X129921095Y-90914357D02*
X129968714Y-90866738D01*
X129968714Y-90866738D02*
X130063952Y-90819119D01*
X130063952Y-90819119D02*
X130302047Y-90819119D01*
X130302047Y-90819119D02*
X130397285Y-90866738D01*
X130397285Y-90866738D02*
X130444904Y-90914357D01*
X130444904Y-90914357D02*
X130492523Y-91009595D01*
X130492523Y-91009595D02*
X130492523Y-91104833D01*
X130492523Y-91104833D02*
X130444904Y-91247690D01*
X130444904Y-91247690D02*
X129873476Y-91819119D01*
X129873476Y-91819119D02*
X130492523Y-91819119D01*
X131111571Y-90819119D02*
X131206809Y-90819119D01*
X131206809Y-90819119D02*
X131302047Y-90866738D01*
X131302047Y-90866738D02*
X131349666Y-90914357D01*
X131349666Y-90914357D02*
X131397285Y-91009595D01*
X131397285Y-91009595D02*
X131444904Y-91200071D01*
X131444904Y-91200071D02*
X131444904Y-91438166D01*
X131444904Y-91438166D02*
X131397285Y-91628642D01*
X131397285Y-91628642D02*
X131349666Y-91723880D01*
X131349666Y-91723880D02*
X131302047Y-91771500D01*
X131302047Y-91771500D02*
X131206809Y-91819119D01*
X131206809Y-91819119D02*
X131111571Y-91819119D01*
X131111571Y-91819119D02*
X131016333Y-91771500D01*
X131016333Y-91771500D02*
X130968714Y-91723880D01*
X130968714Y-91723880D02*
X130921095Y-91628642D01*
X130921095Y-91628642D02*
X130873476Y-91438166D01*
X130873476Y-91438166D02*
X130873476Y-91200071D01*
X130873476Y-91200071D02*
X130921095Y-91009595D01*
X130921095Y-91009595D02*
X130968714Y-90914357D01*
X130968714Y-90914357D02*
X131016333Y-90866738D01*
X131016333Y-90866738D02*
X131111571Y-90819119D01*
X145605523Y-102868119D02*
X145034095Y-102868119D01*
X145319809Y-102868119D02*
X145319809Y-101868119D01*
X145319809Y-101868119D02*
X145224571Y-102010976D01*
X145224571Y-102010976D02*
X145129333Y-102106214D01*
X145129333Y-102106214D02*
X145034095Y-102153833D01*
X146557904Y-102868119D02*
X145986476Y-102868119D01*
X146272190Y-102868119D02*
X146272190Y-101868119D01*
X146272190Y-101868119D02*
X146176952Y-102010976D01*
X146176952Y-102010976D02*
X146081714Y-102106214D01*
X146081714Y-102106214D02*
X145986476Y-102153833D01*
X130921095Y-101868119D02*
X130444905Y-101868119D01*
X130444905Y-101868119D02*
X130397286Y-102344309D01*
X130397286Y-102344309D02*
X130444905Y-102296690D01*
X130444905Y-102296690D02*
X130540143Y-102249071D01*
X130540143Y-102249071D02*
X130778238Y-102249071D01*
X130778238Y-102249071D02*
X130873476Y-102296690D01*
X130873476Y-102296690D02*
X130921095Y-102344309D01*
X130921095Y-102344309D02*
X130968714Y-102439547D01*
X130968714Y-102439547D02*
X130968714Y-102677642D01*
X130968714Y-102677642D02*
X130921095Y-102772880D01*
X130921095Y-102772880D02*
X130873476Y-102820500D01*
X130873476Y-102820500D02*
X130778238Y-102868119D01*
X130778238Y-102868119D02*
X130540143Y-102868119D01*
X130540143Y-102868119D02*
X130444905Y-102820500D01*
X130444905Y-102820500D02*
X130397286Y-102772880D01*
X132778523Y-91819119D02*
X132207095Y-91819119D01*
X132492809Y-91819119D02*
X132492809Y-90819119D01*
X132492809Y-90819119D02*
X132397571Y-90961976D01*
X132397571Y-90961976D02*
X132302333Y-91057214D01*
X132302333Y-91057214D02*
X132207095Y-91104833D01*
X133254714Y-91819119D02*
X133445190Y-91819119D01*
X133445190Y-91819119D02*
X133540428Y-91771500D01*
X133540428Y-91771500D02*
X133588047Y-91723880D01*
X133588047Y-91723880D02*
X133683285Y-91581023D01*
X133683285Y-91581023D02*
X133730904Y-91390547D01*
X133730904Y-91390547D02*
X133730904Y-91009595D01*
X133730904Y-91009595D02*
X133683285Y-90914357D01*
X133683285Y-90914357D02*
X133635666Y-90866738D01*
X133635666Y-90866738D02*
X133540428Y-90819119D01*
X133540428Y-90819119D02*
X133349952Y-90819119D01*
X133349952Y-90819119D02*
X133254714Y-90866738D01*
X133254714Y-90866738D02*
X133207095Y-90914357D01*
X133207095Y-90914357D02*
X133159476Y-91009595D01*
X133159476Y-91009595D02*
X133159476Y-91247690D01*
X133159476Y-91247690D02*
X133207095Y-91342928D01*
X133207095Y-91342928D02*
X133254714Y-91390547D01*
X133254714Y-91390547D02*
X133349952Y-91438166D01*
X133349952Y-91438166D02*
X133540428Y-91438166D01*
X133540428Y-91438166D02*
X133635666Y-91390547D01*
X133635666Y-91390547D02*
X133683285Y-91342928D01*
X133683285Y-91342928D02*
X133730904Y-91247690D01*
X142938523Y-102868119D02*
X142367095Y-102868119D01*
X142652809Y-102868119D02*
X142652809Y-101868119D01*
X142652809Y-101868119D02*
X142557571Y-102010976D01*
X142557571Y-102010976D02*
X142462333Y-102106214D01*
X142462333Y-102106214D02*
X142367095Y-102153833D01*
X143557571Y-101868119D02*
X143652809Y-101868119D01*
X143652809Y-101868119D02*
X143748047Y-101915738D01*
X143748047Y-101915738D02*
X143795666Y-101963357D01*
X143795666Y-101963357D02*
X143843285Y-102058595D01*
X143843285Y-102058595D02*
X143890904Y-102249071D01*
X143890904Y-102249071D02*
X143890904Y-102487166D01*
X143890904Y-102487166D02*
X143843285Y-102677642D01*
X143843285Y-102677642D02*
X143795666Y-102772880D01*
X143795666Y-102772880D02*
X143748047Y-102820500D01*
X143748047Y-102820500D02*
X143652809Y-102868119D01*
X143652809Y-102868119D02*
X143557571Y-102868119D01*
X143557571Y-102868119D02*
X143462333Y-102820500D01*
X143462333Y-102820500D02*
X143414714Y-102772880D01*
X143414714Y-102772880D02*
X143367095Y-102677642D01*
X143367095Y-102677642D02*
X143319476Y-102487166D01*
X143319476Y-102487166D02*
X143319476Y-102249071D01*
X143319476Y-102249071D02*
X143367095Y-102058595D01*
X143367095Y-102058595D02*
X143414714Y-101963357D01*
X143414714Y-101963357D02*
X143462333Y-101915738D01*
X143462333Y-101915738D02*
X143557571Y-101868119D01*
X140398524Y-102868119D02*
X140589000Y-102868119D01*
X140589000Y-102868119D02*
X140684238Y-102820500D01*
X140684238Y-102820500D02*
X140731857Y-102772880D01*
X140731857Y-102772880D02*
X140827095Y-102630023D01*
X140827095Y-102630023D02*
X140874714Y-102439547D01*
X140874714Y-102439547D02*
X140874714Y-102058595D01*
X140874714Y-102058595D02*
X140827095Y-101963357D01*
X140827095Y-101963357D02*
X140779476Y-101915738D01*
X140779476Y-101915738D02*
X140684238Y-101868119D01*
X140684238Y-101868119D02*
X140493762Y-101868119D01*
X140493762Y-101868119D02*
X140398524Y-101915738D01*
X140398524Y-101915738D02*
X140350905Y-101963357D01*
X140350905Y-101963357D02*
X140303286Y-102058595D01*
X140303286Y-102058595D02*
X140303286Y-102296690D01*
X140303286Y-102296690D02*
X140350905Y-102391928D01*
X140350905Y-102391928D02*
X140398524Y-102439547D01*
X140398524Y-102439547D02*
X140493762Y-102487166D01*
X140493762Y-102487166D02*
X140684238Y-102487166D01*
X140684238Y-102487166D02*
X140779476Y-102439547D01*
X140779476Y-102439547D02*
X140827095Y-102391928D01*
X140827095Y-102391928D02*
X140874714Y-102296690D01*
X115174880Y-95385095D02*
X114365357Y-95385095D01*
X114365357Y-95385095D02*
X114270119Y-95432714D01*
X114270119Y-95432714D02*
X114222500Y-95480333D01*
X114222500Y-95480333D02*
X114174880Y-95575571D01*
X114174880Y-95575571D02*
X114174880Y-95766047D01*
X114174880Y-95766047D02*
X114222500Y-95861285D01*
X114222500Y-95861285D02*
X114270119Y-95908904D01*
X114270119Y-95908904D02*
X114365357Y-95956523D01*
X114365357Y-95956523D02*
X115174880Y-95956523D01*
X114222500Y-96385095D02*
X114174880Y-96527952D01*
X114174880Y-96527952D02*
X114174880Y-96766047D01*
X114174880Y-96766047D02*
X114222500Y-96861285D01*
X114222500Y-96861285D02*
X114270119Y-96908904D01*
X114270119Y-96908904D02*
X114365357Y-96956523D01*
X114365357Y-96956523D02*
X114460595Y-96956523D01*
X114460595Y-96956523D02*
X114555833Y-96908904D01*
X114555833Y-96908904D02*
X114603452Y-96861285D01*
X114603452Y-96861285D02*
X114651071Y-96766047D01*
X114651071Y-96766047D02*
X114698690Y-96575571D01*
X114698690Y-96575571D02*
X114746309Y-96480333D01*
X114746309Y-96480333D02*
X114793928Y-96432714D01*
X114793928Y-96432714D02*
X114889166Y-96385095D01*
X114889166Y-96385095D02*
X114984404Y-96385095D01*
X114984404Y-96385095D02*
X115079642Y-96432714D01*
X115079642Y-96432714D02*
X115127261Y-96480333D01*
X115127261Y-96480333D02*
X115174880Y-96575571D01*
X115174880Y-96575571D02*
X115174880Y-96813666D01*
X115174880Y-96813666D02*
X115127261Y-96956523D01*
X114698690Y-97718428D02*
X114651071Y-97861285D01*
X114651071Y-97861285D02*
X114603452Y-97908904D01*
X114603452Y-97908904D02*
X114508214Y-97956523D01*
X114508214Y-97956523D02*
X114365357Y-97956523D01*
X114365357Y-97956523D02*
X114270119Y-97908904D01*
X114270119Y-97908904D02*
X114222500Y-97861285D01*
X114222500Y-97861285D02*
X114174880Y-97766047D01*
X114174880Y-97766047D02*
X114174880Y-97385095D01*
X114174880Y-97385095D02*
X115174880Y-97385095D01*
X115174880Y-97385095D02*
X115174880Y-97718428D01*
X115174880Y-97718428D02*
X115127261Y-97813666D01*
X115127261Y-97813666D02*
X115079642Y-97861285D01*
X115079642Y-97861285D02*
X114984404Y-97908904D01*
X114984404Y-97908904D02*
X114889166Y-97908904D01*
X114889166Y-97908904D02*
X114793928Y-97861285D01*
X114793928Y-97861285D02*
X114746309Y-97813666D01*
X114746309Y-97813666D02*
X114698690Y-97718428D01*
X114698690Y-97718428D02*
X114698690Y-97385095D01*
X145605523Y-91819119D02*
X145034095Y-91819119D01*
X145319809Y-91819119D02*
X145319809Y-90819119D01*
X145319809Y-90819119D02*
X145224571Y-90961976D01*
X145224571Y-90961976D02*
X145129333Y-91057214D01*
X145129333Y-91057214D02*
X145034095Y-91104833D01*
X146462666Y-91152452D02*
X146462666Y-91819119D01*
X146224571Y-90771500D02*
X145986476Y-91485785D01*
X145986476Y-91485785D02*
X146605523Y-91485785D01*
X128891541Y-77865119D02*
X129224874Y-78865119D01*
X129224874Y-78865119D02*
X129558207Y-77865119D01*
X130034398Y-78865119D02*
X129939160Y-78817500D01*
X129939160Y-78817500D02*
X129891541Y-78769880D01*
X129891541Y-78769880D02*
X129843922Y-78674642D01*
X129843922Y-78674642D02*
X129843922Y-78388928D01*
X129843922Y-78388928D02*
X129891541Y-78293690D01*
X129891541Y-78293690D02*
X129939160Y-78246071D01*
X129939160Y-78246071D02*
X130034398Y-78198452D01*
X130034398Y-78198452D02*
X130177255Y-78198452D01*
X130177255Y-78198452D02*
X130272493Y-78246071D01*
X130272493Y-78246071D02*
X130320112Y-78293690D01*
X130320112Y-78293690D02*
X130367731Y-78388928D01*
X130367731Y-78388928D02*
X130367731Y-78674642D01*
X130367731Y-78674642D02*
X130320112Y-78769880D01*
X130320112Y-78769880D02*
X130272493Y-78817500D01*
X130272493Y-78817500D02*
X130177255Y-78865119D01*
X130177255Y-78865119D02*
X130034398Y-78865119D01*
X130939160Y-78865119D02*
X130843922Y-78817500D01*
X130843922Y-78817500D02*
X130796303Y-78722261D01*
X130796303Y-78722261D02*
X130796303Y-77865119D01*
X131177256Y-78198452D02*
X131558208Y-78198452D01*
X131320113Y-77865119D02*
X131320113Y-78722261D01*
X131320113Y-78722261D02*
X131367732Y-78817500D01*
X131367732Y-78817500D02*
X131462970Y-78865119D01*
X131462970Y-78865119D02*
X131558208Y-78865119D01*
X132320113Y-78865119D02*
X132320113Y-78341309D01*
X132320113Y-78341309D02*
X132272494Y-78246071D01*
X132272494Y-78246071D02*
X132177256Y-78198452D01*
X132177256Y-78198452D02*
X131986780Y-78198452D01*
X131986780Y-78198452D02*
X131891542Y-78246071D01*
X132320113Y-78817500D02*
X132224875Y-78865119D01*
X132224875Y-78865119D02*
X131986780Y-78865119D01*
X131986780Y-78865119D02*
X131891542Y-78817500D01*
X131891542Y-78817500D02*
X131843923Y-78722261D01*
X131843923Y-78722261D02*
X131843923Y-78627023D01*
X131843923Y-78627023D02*
X131891542Y-78531785D01*
X131891542Y-78531785D02*
X131986780Y-78484166D01*
X131986780Y-78484166D02*
X132224875Y-78484166D01*
X132224875Y-78484166D02*
X132320113Y-78436547D01*
X133224875Y-78198452D02*
X133224875Y-79007976D01*
X133224875Y-79007976D02*
X133177256Y-79103214D01*
X133177256Y-79103214D02*
X133129637Y-79150833D01*
X133129637Y-79150833D02*
X133034399Y-79198452D01*
X133034399Y-79198452D02*
X132891542Y-79198452D01*
X132891542Y-79198452D02*
X132796304Y-79150833D01*
X133224875Y-78817500D02*
X133129637Y-78865119D01*
X133129637Y-78865119D02*
X132939161Y-78865119D01*
X132939161Y-78865119D02*
X132843923Y-78817500D01*
X132843923Y-78817500D02*
X132796304Y-78769880D01*
X132796304Y-78769880D02*
X132748685Y-78674642D01*
X132748685Y-78674642D02*
X132748685Y-78388928D01*
X132748685Y-78388928D02*
X132796304Y-78293690D01*
X132796304Y-78293690D02*
X132843923Y-78246071D01*
X132843923Y-78246071D02*
X132939161Y-78198452D01*
X132939161Y-78198452D02*
X133129637Y-78198452D01*
X133129637Y-78198452D02*
X133224875Y-78246071D01*
X134082018Y-78817500D02*
X133986780Y-78865119D01*
X133986780Y-78865119D02*
X133796304Y-78865119D01*
X133796304Y-78865119D02*
X133701066Y-78817500D01*
X133701066Y-78817500D02*
X133653447Y-78722261D01*
X133653447Y-78722261D02*
X133653447Y-78341309D01*
X133653447Y-78341309D02*
X133701066Y-78246071D01*
X133701066Y-78246071D02*
X133796304Y-78198452D01*
X133796304Y-78198452D02*
X133986780Y-78198452D01*
X133986780Y-78198452D02*
X134082018Y-78246071D01*
X134082018Y-78246071D02*
X134129637Y-78341309D01*
X134129637Y-78341309D02*
X134129637Y-78436547D01*
X134129637Y-78436547D02*
X133653447Y-78531785D01*
X135891542Y-78865119D02*
X135558209Y-78388928D01*
X135320114Y-78865119D02*
X135320114Y-77865119D01*
X135320114Y-77865119D02*
X135701066Y-77865119D01*
X135701066Y-77865119D02*
X135796304Y-77912738D01*
X135796304Y-77912738D02*
X135843923Y-77960357D01*
X135843923Y-77960357D02*
X135891542Y-78055595D01*
X135891542Y-78055595D02*
X135891542Y-78198452D01*
X135891542Y-78198452D02*
X135843923Y-78293690D01*
X135843923Y-78293690D02*
X135796304Y-78341309D01*
X135796304Y-78341309D02*
X135701066Y-78388928D01*
X135701066Y-78388928D02*
X135320114Y-78388928D01*
X136701066Y-78817500D02*
X136605828Y-78865119D01*
X136605828Y-78865119D02*
X136415352Y-78865119D01*
X136415352Y-78865119D02*
X136320114Y-78817500D01*
X136320114Y-78817500D02*
X136272495Y-78722261D01*
X136272495Y-78722261D02*
X136272495Y-78341309D01*
X136272495Y-78341309D02*
X136320114Y-78246071D01*
X136320114Y-78246071D02*
X136415352Y-78198452D01*
X136415352Y-78198452D02*
X136605828Y-78198452D01*
X136605828Y-78198452D02*
X136701066Y-78246071D01*
X136701066Y-78246071D02*
X136748685Y-78341309D01*
X136748685Y-78341309D02*
X136748685Y-78436547D01*
X136748685Y-78436547D02*
X136272495Y-78531785D01*
X137605828Y-78198452D02*
X137605828Y-79007976D01*
X137605828Y-79007976D02*
X137558209Y-79103214D01*
X137558209Y-79103214D02*
X137510590Y-79150833D01*
X137510590Y-79150833D02*
X137415352Y-79198452D01*
X137415352Y-79198452D02*
X137272495Y-79198452D01*
X137272495Y-79198452D02*
X137177257Y-79150833D01*
X137605828Y-78817500D02*
X137510590Y-78865119D01*
X137510590Y-78865119D02*
X137320114Y-78865119D01*
X137320114Y-78865119D02*
X137224876Y-78817500D01*
X137224876Y-78817500D02*
X137177257Y-78769880D01*
X137177257Y-78769880D02*
X137129638Y-78674642D01*
X137129638Y-78674642D02*
X137129638Y-78388928D01*
X137129638Y-78388928D02*
X137177257Y-78293690D01*
X137177257Y-78293690D02*
X137224876Y-78246071D01*
X137224876Y-78246071D02*
X137320114Y-78198452D01*
X137320114Y-78198452D02*
X137510590Y-78198452D01*
X137510590Y-78198452D02*
X137605828Y-78246071D01*
X138510590Y-78198452D02*
X138510590Y-78865119D01*
X138082019Y-78198452D02*
X138082019Y-78722261D01*
X138082019Y-78722261D02*
X138129638Y-78817500D01*
X138129638Y-78817500D02*
X138224876Y-78865119D01*
X138224876Y-78865119D02*
X138367733Y-78865119D01*
X138367733Y-78865119D02*
X138462971Y-78817500D01*
X138462971Y-78817500D02*
X138510590Y-78769880D01*
X139129638Y-78865119D02*
X139034400Y-78817500D01*
X139034400Y-78817500D02*
X138986781Y-78722261D01*
X138986781Y-78722261D02*
X138986781Y-77865119D01*
X139939162Y-78865119D02*
X139939162Y-78341309D01*
X139939162Y-78341309D02*
X139891543Y-78246071D01*
X139891543Y-78246071D02*
X139796305Y-78198452D01*
X139796305Y-78198452D02*
X139605829Y-78198452D01*
X139605829Y-78198452D02*
X139510591Y-78246071D01*
X139939162Y-78817500D02*
X139843924Y-78865119D01*
X139843924Y-78865119D02*
X139605829Y-78865119D01*
X139605829Y-78865119D02*
X139510591Y-78817500D01*
X139510591Y-78817500D02*
X139462972Y-78722261D01*
X139462972Y-78722261D02*
X139462972Y-78627023D01*
X139462972Y-78627023D02*
X139510591Y-78531785D01*
X139510591Y-78531785D02*
X139605829Y-78484166D01*
X139605829Y-78484166D02*
X139843924Y-78484166D01*
X139843924Y-78484166D02*
X139939162Y-78436547D01*
X140272496Y-78198452D02*
X140653448Y-78198452D01*
X140415353Y-77865119D02*
X140415353Y-78722261D01*
X140415353Y-78722261D02*
X140462972Y-78817500D01*
X140462972Y-78817500D02*
X140558210Y-78865119D01*
X140558210Y-78865119D02*
X140653448Y-78865119D01*
X141129639Y-78865119D02*
X141034401Y-78817500D01*
X141034401Y-78817500D02*
X140986782Y-78769880D01*
X140986782Y-78769880D02*
X140939163Y-78674642D01*
X140939163Y-78674642D02*
X140939163Y-78388928D01*
X140939163Y-78388928D02*
X140986782Y-78293690D01*
X140986782Y-78293690D02*
X141034401Y-78246071D01*
X141034401Y-78246071D02*
X141129639Y-78198452D01*
X141129639Y-78198452D02*
X141272496Y-78198452D01*
X141272496Y-78198452D02*
X141367734Y-78246071D01*
X141367734Y-78246071D02*
X141415353Y-78293690D01*
X141415353Y-78293690D02*
X141462972Y-78388928D01*
X141462972Y-78388928D02*
X141462972Y-78674642D01*
X141462972Y-78674642D02*
X141415353Y-78769880D01*
X141415353Y-78769880D02*
X141367734Y-78817500D01*
X141367734Y-78817500D02*
X141272496Y-78865119D01*
X141272496Y-78865119D02*
X141129639Y-78865119D01*
X141891544Y-78865119D02*
X141891544Y-78198452D01*
X141891544Y-78388928D02*
X141939163Y-78293690D01*
X141939163Y-78293690D02*
X141986782Y-78246071D01*
X141986782Y-78246071D02*
X142082020Y-78198452D01*
X142082020Y-78198452D02*
X142177258Y-78198452D01*
X127254095Y-90914357D02*
X127301714Y-90866738D01*
X127301714Y-90866738D02*
X127396952Y-90819119D01*
X127396952Y-90819119D02*
X127635047Y-90819119D01*
X127635047Y-90819119D02*
X127730285Y-90866738D01*
X127730285Y-90866738D02*
X127777904Y-90914357D01*
X127777904Y-90914357D02*
X127825523Y-91009595D01*
X127825523Y-91009595D02*
X127825523Y-91104833D01*
X127825523Y-91104833D02*
X127777904Y-91247690D01*
X127777904Y-91247690D02*
X127206476Y-91819119D01*
X127206476Y-91819119D02*
X127825523Y-91819119D01*
X128777904Y-91819119D02*
X128206476Y-91819119D01*
X128492190Y-91819119D02*
X128492190Y-90819119D01*
X128492190Y-90819119D02*
X128396952Y-90961976D01*
X128396952Y-90961976D02*
X128301714Y-91057214D01*
X128301714Y-91057214D02*
X128206476Y-91104833D01*
X135318523Y-91819119D02*
X134747095Y-91819119D01*
X135032809Y-91819119D02*
X135032809Y-90819119D01*
X135032809Y-90819119D02*
X134937571Y-90961976D01*
X134937571Y-90961976D02*
X134842333Y-91057214D01*
X134842333Y-91057214D02*
X134747095Y-91104833D01*
X135889952Y-91247690D02*
X135794714Y-91200071D01*
X135794714Y-91200071D02*
X135747095Y-91152452D01*
X135747095Y-91152452D02*
X135699476Y-91057214D01*
X135699476Y-91057214D02*
X135699476Y-91009595D01*
X135699476Y-91009595D02*
X135747095Y-90914357D01*
X135747095Y-90914357D02*
X135794714Y-90866738D01*
X135794714Y-90866738D02*
X135889952Y-90819119D01*
X135889952Y-90819119D02*
X136080428Y-90819119D01*
X136080428Y-90819119D02*
X136175666Y-90866738D01*
X136175666Y-90866738D02*
X136223285Y-90914357D01*
X136223285Y-90914357D02*
X136270904Y-91009595D01*
X136270904Y-91009595D02*
X136270904Y-91057214D01*
X136270904Y-91057214D02*
X136223285Y-91152452D01*
X136223285Y-91152452D02*
X136175666Y-91200071D01*
X136175666Y-91200071D02*
X136080428Y-91247690D01*
X136080428Y-91247690D02*
X135889952Y-91247690D01*
X135889952Y-91247690D02*
X135794714Y-91295309D01*
X135794714Y-91295309D02*
X135747095Y-91342928D01*
X135747095Y-91342928D02*
X135699476Y-91438166D01*
X135699476Y-91438166D02*
X135699476Y-91628642D01*
X135699476Y-91628642D02*
X135747095Y-91723880D01*
X135747095Y-91723880D02*
X135794714Y-91771500D01*
X135794714Y-91771500D02*
X135889952Y-91819119D01*
X135889952Y-91819119D02*
X136080428Y-91819119D01*
X136080428Y-91819119D02*
X136175666Y-91771500D01*
X136175666Y-91771500D02*
X136223285Y-91723880D01*
X136223285Y-91723880D02*
X136270904Y-91628642D01*
X136270904Y-91628642D02*
X136270904Y-91438166D01*
X136270904Y-91438166D02*
X136223285Y-91342928D01*
X136223285Y-91342928D02*
X136175666Y-91295309D01*
X136175666Y-91295309D02*
X136080428Y-91247690D01*
X122650286Y-101963357D02*
X122697905Y-101915738D01*
X122697905Y-101915738D02*
X122793143Y-101868119D01*
X122793143Y-101868119D02*
X123031238Y-101868119D01*
X123031238Y-101868119D02*
X123126476Y-101915738D01*
X123126476Y-101915738D02*
X123174095Y-101963357D01*
X123174095Y-101963357D02*
X123221714Y-102058595D01*
X123221714Y-102058595D02*
X123221714Y-102153833D01*
X123221714Y-102153833D02*
X123174095Y-102296690D01*
X123174095Y-102296690D02*
X122602667Y-102868119D01*
X122602667Y-102868119D02*
X123221714Y-102868119D01*
X153732170Y-92768509D02*
X153875027Y-92816128D01*
X153875027Y-92816128D02*
X153922646Y-92863747D01*
X153922646Y-92863747D02*
X153970265Y-92958985D01*
X153970265Y-92958985D02*
X153970265Y-93101842D01*
X153970265Y-93101842D02*
X153922646Y-93197080D01*
X153922646Y-93197080D02*
X153875027Y-93244700D01*
X153875027Y-93244700D02*
X153779789Y-93292319D01*
X153779789Y-93292319D02*
X153398837Y-93292319D01*
X153398837Y-93292319D02*
X153398837Y-92292319D01*
X153398837Y-92292319D02*
X153732170Y-92292319D01*
X153732170Y-92292319D02*
X153827408Y-92339938D01*
X153827408Y-92339938D02*
X153875027Y-92387557D01*
X153875027Y-92387557D02*
X153922646Y-92482795D01*
X153922646Y-92482795D02*
X153922646Y-92578033D01*
X153922646Y-92578033D02*
X153875027Y-92673271D01*
X153875027Y-92673271D02*
X153827408Y-92720890D01*
X153827408Y-92720890D02*
X153732170Y-92768509D01*
X153732170Y-92768509D02*
X153398837Y-92768509D01*
X154827408Y-93292319D02*
X154827408Y-92768509D01*
X154827408Y-92768509D02*
X154779789Y-92673271D01*
X154779789Y-92673271D02*
X154684551Y-92625652D01*
X154684551Y-92625652D02*
X154494075Y-92625652D01*
X154494075Y-92625652D02*
X154398837Y-92673271D01*
X154827408Y-93244700D02*
X154732170Y-93292319D01*
X154732170Y-93292319D02*
X154494075Y-93292319D01*
X154494075Y-93292319D02*
X154398837Y-93244700D01*
X154398837Y-93244700D02*
X154351218Y-93149461D01*
X154351218Y-93149461D02*
X154351218Y-93054223D01*
X154351218Y-93054223D02*
X154398837Y-92958985D01*
X154398837Y-92958985D02*
X154494075Y-92911366D01*
X154494075Y-92911366D02*
X154732170Y-92911366D01*
X154732170Y-92911366D02*
X154827408Y-92863747D01*
X155160742Y-92625652D02*
X155541694Y-92625652D01*
X155303599Y-92292319D02*
X155303599Y-93149461D01*
X155303599Y-93149461D02*
X155351218Y-93244700D01*
X155351218Y-93244700D02*
X155446456Y-93292319D01*
X155446456Y-93292319D02*
X155541694Y-93292319D01*
X155732171Y-92625652D02*
X156113123Y-92625652D01*
X155875028Y-92292319D02*
X155875028Y-93149461D01*
X155875028Y-93149461D02*
X155922647Y-93244700D01*
X155922647Y-93244700D02*
X156017885Y-93292319D01*
X156017885Y-93292319D02*
X156113123Y-93292319D01*
X156827409Y-93244700D02*
X156732171Y-93292319D01*
X156732171Y-93292319D02*
X156541695Y-93292319D01*
X156541695Y-93292319D02*
X156446457Y-93244700D01*
X156446457Y-93244700D02*
X156398838Y-93149461D01*
X156398838Y-93149461D02*
X156398838Y-92768509D01*
X156398838Y-92768509D02*
X156446457Y-92673271D01*
X156446457Y-92673271D02*
X156541695Y-92625652D01*
X156541695Y-92625652D02*
X156732171Y-92625652D01*
X156732171Y-92625652D02*
X156827409Y-92673271D01*
X156827409Y-92673271D02*
X156875028Y-92768509D01*
X156875028Y-92768509D02*
X156875028Y-92863747D01*
X156875028Y-92863747D02*
X156398838Y-92958985D01*
X157303600Y-93292319D02*
X157303600Y-92625652D01*
X157303600Y-92816128D02*
X157351219Y-92720890D01*
X157351219Y-92720890D02*
X157398838Y-92673271D01*
X157398838Y-92673271D02*
X157494076Y-92625652D01*
X157494076Y-92625652D02*
X157589314Y-92625652D01*
X157827410Y-92625652D02*
X158065505Y-93292319D01*
X158303600Y-92625652D02*
X158065505Y-93292319D01*
X158065505Y-93292319D02*
X157970267Y-93530414D01*
X157970267Y-93530414D02*
X157922648Y-93578033D01*
X157922648Y-93578033D02*
X157827410Y-93625652D01*
D11*
X151717476Y-100546819D02*
X151717476Y-101261104D01*
X151717476Y-101261104D02*
X151669857Y-101403961D01*
X151669857Y-101403961D02*
X151574619Y-101499200D01*
X151574619Y-101499200D02*
X151431762Y-101546819D01*
X151431762Y-101546819D02*
X151336524Y-101546819D01*
X152717476Y-101546819D02*
X152146048Y-101546819D01*
X152431762Y-101546819D02*
X152431762Y-100546819D01*
X152431762Y-100546819D02*
X152336524Y-100689676D01*
X152336524Y-100689676D02*
X152241286Y-100784914D01*
X152241286Y-100784914D02*
X152146048Y-100832533D01*
X153336524Y-100546819D02*
X153431762Y-100546819D01*
X153431762Y-100546819D02*
X153527000Y-100594438D01*
X153527000Y-100594438D02*
X153574619Y-100642057D01*
X153574619Y-100642057D02*
X153622238Y-100737295D01*
X153622238Y-100737295D02*
X153669857Y-100927771D01*
X153669857Y-100927771D02*
X153669857Y-101165866D01*
X153669857Y-101165866D02*
X153622238Y-101356342D01*
X153622238Y-101356342D02*
X153574619Y-101451580D01*
X153574619Y-101451580D02*
X153527000Y-101499200D01*
X153527000Y-101499200D02*
X153431762Y-101546819D01*
X153431762Y-101546819D02*
X153336524Y-101546819D01*
X153336524Y-101546819D02*
X153241286Y-101499200D01*
X153241286Y-101499200D02*
X153193667Y-101451580D01*
X153193667Y-101451580D02*
X153146048Y-101356342D01*
X153146048Y-101356342D02*
X153098429Y-101165866D01*
X153098429Y-101165866D02*
X153098429Y-100927771D01*
X153098429Y-100927771D02*
X153146048Y-100737295D01*
X153146048Y-100737295D02*
X153193667Y-100642057D01*
X153193667Y-100642057D02*
X153241286Y-100594438D01*
X153241286Y-100594438D02*
X153336524Y-100546819D01*
X127047666Y-77813819D02*
X127047666Y-78528104D01*
X127047666Y-78528104D02*
X127000047Y-78670961D01*
X127000047Y-78670961D02*
X126904809Y-78766200D01*
X126904809Y-78766200D02*
X126761952Y-78813819D01*
X126761952Y-78813819D02*
X126666714Y-78813819D01*
X127428619Y-77813819D02*
X128047666Y-77813819D01*
X128047666Y-77813819D02*
X127714333Y-78194771D01*
X127714333Y-78194771D02*
X127857190Y-78194771D01*
X127857190Y-78194771D02*
X127952428Y-78242390D01*
X127952428Y-78242390D02*
X128000047Y-78290009D01*
X128000047Y-78290009D02*
X128047666Y-78385247D01*
X128047666Y-78385247D02*
X128047666Y-78623342D01*
X128047666Y-78623342D02*
X128000047Y-78718580D01*
X128000047Y-78718580D02*
X127952428Y-78766200D01*
X127952428Y-78766200D02*
X127857190Y-78813819D01*
X127857190Y-78813819D02*
X127571476Y-78813819D01*
X127571476Y-78813819D02*
X127476238Y-78766200D01*
X127476238Y-78766200D02*
X127428619Y-78718580D01*
D13*
X125476095Y-107255019D02*
X125476095Y-108064542D01*
X125476095Y-108064542D02*
X125523714Y-108159780D01*
X125523714Y-108159780D02*
X125571333Y-108207400D01*
X125571333Y-108207400D02*
X125666571Y-108255019D01*
X125666571Y-108255019D02*
X125857047Y-108255019D01*
X125857047Y-108255019D02*
X125952285Y-108207400D01*
X125952285Y-108207400D02*
X125999904Y-108159780D01*
X125999904Y-108159780D02*
X126047523Y-108064542D01*
X126047523Y-108064542D02*
X126047523Y-107255019D01*
X126476095Y-107350257D02*
X126523714Y-107302638D01*
X126523714Y-107302638D02*
X126618952Y-107255019D01*
X126618952Y-107255019D02*
X126857047Y-107255019D01*
X126857047Y-107255019D02*
X126952285Y-107302638D01*
X126952285Y-107302638D02*
X126999904Y-107350257D01*
X126999904Y-107350257D02*
X127047523Y-107445495D01*
X127047523Y-107445495D02*
X127047523Y-107540733D01*
X127047523Y-107540733D02*
X126999904Y-107683590D01*
X126999904Y-107683590D02*
X126428476Y-108255019D01*
X126428476Y-108255019D02*
X127047523Y-108255019D01*
D11*
X114017466Y-76823219D02*
X114017466Y-77537504D01*
X114017466Y-77537504D02*
X113969847Y-77680361D01*
X113969847Y-77680361D02*
X113874609Y-77775600D01*
X113874609Y-77775600D02*
X113731752Y-77823219D01*
X113731752Y-77823219D02*
X113636514Y-77823219D01*
X114541276Y-77823219D02*
X114731752Y-77823219D01*
X114731752Y-77823219D02*
X114826990Y-77775600D01*
X114826990Y-77775600D02*
X114874609Y-77727980D01*
X114874609Y-77727980D02*
X114969847Y-77585123D01*
X114969847Y-77585123D02*
X115017466Y-77394647D01*
X115017466Y-77394647D02*
X115017466Y-77013695D01*
X115017466Y-77013695D02*
X114969847Y-76918457D01*
X114969847Y-76918457D02*
X114922228Y-76870838D01*
X114922228Y-76870838D02*
X114826990Y-76823219D01*
X114826990Y-76823219D02*
X114636514Y-76823219D01*
X114636514Y-76823219D02*
X114541276Y-76870838D01*
X114541276Y-76870838D02*
X114493657Y-76918457D01*
X114493657Y-76918457D02*
X114446038Y-77013695D01*
X114446038Y-77013695D02*
X114446038Y-77251790D01*
X114446038Y-77251790D02*
X114493657Y-77347028D01*
X114493657Y-77347028D02*
X114541276Y-77394647D01*
X114541276Y-77394647D02*
X114636514Y-77442266D01*
X114636514Y-77442266D02*
X114826990Y-77442266D01*
X114826990Y-77442266D02*
X114922228Y-77394647D01*
X114922228Y-77394647D02*
X114969847Y-77347028D01*
X114969847Y-77347028D02*
X115017466Y-77251790D01*
X152320666Y-79337819D02*
X152320666Y-80052104D01*
X152320666Y-80052104D02*
X152273047Y-80194961D01*
X152273047Y-80194961D02*
X152177809Y-80290200D01*
X152177809Y-80290200D02*
X152034952Y-80337819D01*
X152034952Y-80337819D02*
X151939714Y-80337819D01*
X152939714Y-79766390D02*
X152844476Y-79718771D01*
X152844476Y-79718771D02*
X152796857Y-79671152D01*
X152796857Y-79671152D02*
X152749238Y-79575914D01*
X152749238Y-79575914D02*
X152749238Y-79528295D01*
X152749238Y-79528295D02*
X152796857Y-79433057D01*
X152796857Y-79433057D02*
X152844476Y-79385438D01*
X152844476Y-79385438D02*
X152939714Y-79337819D01*
X152939714Y-79337819D02*
X153130190Y-79337819D01*
X153130190Y-79337819D02*
X153225428Y-79385438D01*
X153225428Y-79385438D02*
X153273047Y-79433057D01*
X153273047Y-79433057D02*
X153320666Y-79528295D01*
X153320666Y-79528295D02*
X153320666Y-79575914D01*
X153320666Y-79575914D02*
X153273047Y-79671152D01*
X153273047Y-79671152D02*
X153225428Y-79718771D01*
X153225428Y-79718771D02*
X153130190Y-79766390D01*
X153130190Y-79766390D02*
X152939714Y-79766390D01*
X152939714Y-79766390D02*
X152844476Y-79814009D01*
X152844476Y-79814009D02*
X152796857Y-79861628D01*
X152796857Y-79861628D02*
X152749238Y-79956866D01*
X152749238Y-79956866D02*
X152749238Y-80147342D01*
X152749238Y-80147342D02*
X152796857Y-80242580D01*
X152796857Y-80242580D02*
X152844476Y-80290200D01*
X152844476Y-80290200D02*
X152939714Y-80337819D01*
X152939714Y-80337819D02*
X153130190Y-80337819D01*
X153130190Y-80337819D02*
X153225428Y-80290200D01*
X153225428Y-80290200D02*
X153273047Y-80242580D01*
X153273047Y-80242580D02*
X153320666Y-80147342D01*
X153320666Y-80147342D02*
X153320666Y-79956866D01*
X153320666Y-79956866D02*
X153273047Y-79861628D01*
X153273047Y-79861628D02*
X153225428Y-79814009D01*
X153225428Y-79814009D02*
X153130190Y-79766390D01*
X151711066Y-92317219D02*
X151711066Y-93031504D01*
X151711066Y-93031504D02*
X151663447Y-93174361D01*
X151663447Y-93174361D02*
X151568209Y-93269600D01*
X151568209Y-93269600D02*
X151425352Y-93317219D01*
X151425352Y-93317219D02*
X151330114Y-93317219D01*
X152615828Y-92650552D02*
X152615828Y-93317219D01*
X152377733Y-92269600D02*
X152139638Y-92983885D01*
X152139638Y-92983885D02*
X152758685Y-92983885D01*
X113814266Y-116294819D02*
X113814266Y-117009104D01*
X113814266Y-117009104D02*
X113766647Y-117151961D01*
X113766647Y-117151961D02*
X113671409Y-117247200D01*
X113671409Y-117247200D02*
X113528552Y-117294819D01*
X113528552Y-117294819D02*
X113433314Y-117294819D01*
X114195219Y-116294819D02*
X114861885Y-116294819D01*
X114861885Y-116294819D02*
X114433314Y-117294819D01*
D13*
X116586095Y-96866419D02*
X116586095Y-97675942D01*
X116586095Y-97675942D02*
X116633714Y-97771180D01*
X116633714Y-97771180D02*
X116681333Y-97818800D01*
X116681333Y-97818800D02*
X116776571Y-97866419D01*
X116776571Y-97866419D02*
X116967047Y-97866419D01*
X116967047Y-97866419D02*
X117062285Y-97818800D01*
X117062285Y-97818800D02*
X117109904Y-97771180D01*
X117109904Y-97771180D02*
X117157523Y-97675942D01*
X117157523Y-97675942D02*
X117157523Y-96866419D01*
X118157523Y-97866419D02*
X117586095Y-97866419D01*
X117871809Y-97866419D02*
X117871809Y-96866419D01*
X117871809Y-96866419D02*
X117776571Y-97009276D01*
X117776571Y-97009276D02*
X117681333Y-97104514D01*
X117681333Y-97104514D02*
X117586095Y-97152133D01*
D14*
X162001200Y-102743000D02*
X162001200Y-104013000D01*
X160731200Y-102743000D02*
X162001200Y-102743000D01*
X158571200Y-105055929D02*
X158571200Y-105510071D01*
X157811200Y-105055929D02*
X157811200Y-105510071D01*
X156031200Y-105055929D02*
X156031200Y-105510071D01*
X155271200Y-105055929D02*
X155271200Y-105510071D01*
X153491200Y-105055929D02*
X153491200Y-105510071D01*
X152731200Y-105055929D02*
X152731200Y-105510071D01*
X161111200Y-105123000D02*
X161111200Y-105510071D01*
X160351200Y-105123000D02*
X160351200Y-105510071D01*
X161111200Y-107595929D02*
X161111200Y-107993000D01*
X160351200Y-107595929D02*
X160351200Y-107993000D01*
X158571200Y-107595929D02*
X158571200Y-107993000D01*
X157811200Y-107595929D02*
X157811200Y-107993000D01*
X156031200Y-107595929D02*
X156031200Y-107993000D01*
X155271200Y-107595929D02*
X155271200Y-107993000D01*
X153491200Y-107595929D02*
X153491200Y-107993000D01*
X152731200Y-107595929D02*
X152731200Y-107993000D01*
X162061200Y-107993000D02*
X151781200Y-107993000D01*
X159461200Y-107993000D02*
X159461200Y-110653000D01*
X156921200Y-107993000D02*
X156921200Y-110653000D01*
X154381200Y-107993000D02*
X154381200Y-110653000D01*
X151781200Y-107993000D02*
X151781200Y-110653000D01*
X162061200Y-110653000D02*
X162061200Y-107993000D01*
X151781200Y-110653000D02*
X162061200Y-110653000D01*
X140903000Y-74743000D02*
X140903000Y-77393800D01*
X139573000Y-74743000D02*
X140903000Y-74743000D01*
X139573000Y-74743000D02*
X128083000Y-74743000D01*
X128083000Y-74743000D02*
X128083000Y-77403000D01*
X140903000Y-77393800D02*
X128083000Y-77403000D01*
D13*
X143013600Y-115163600D02*
X142251600Y-115163600D01*
X143013600Y-114401600D02*
X143013600Y-115163600D01*
X143013600Y-105765600D02*
X143013600Y-106527600D01*
X142251600Y-105765600D02*
X143013600Y-105765600D01*
X121169600Y-115036600D02*
X120153600Y-115036600D01*
X120153600Y-115036600D02*
X120153600Y-114147600D01*
X120153600Y-105765600D02*
X121042600Y-105765600D01*
X120153600Y-105765600D02*
X120153600Y-106654600D01*
X143013600Y-111607600D02*
X120153600Y-111607600D01*
X120153600Y-111607600D02*
X120153600Y-109194600D01*
X120153600Y-109194600D02*
X143013600Y-109194600D01*
X143013600Y-109194600D02*
X143013600Y-111607600D01*
D14*
X113233200Y-86233000D02*
X113233200Y-84963000D01*
X114503200Y-86233000D02*
X113233200Y-86233000D01*
X116663200Y-83920071D02*
X116663200Y-83465929D01*
X117423200Y-83920071D02*
X117423200Y-83465929D01*
X114123200Y-83853000D02*
X114123200Y-83465929D01*
X114883200Y-83853000D02*
X114883200Y-83465929D01*
X114123200Y-81380071D02*
X114123200Y-80983000D01*
X114883200Y-81380071D02*
X114883200Y-80983000D01*
X116663200Y-81380071D02*
X116663200Y-80983000D01*
X117423200Y-81380071D02*
X117423200Y-80983000D01*
X113173200Y-80983000D02*
X118373200Y-80983000D01*
X115773200Y-80983000D02*
X115773200Y-78323000D01*
X118373200Y-80983000D02*
X118373200Y-78323000D01*
X113173200Y-78323000D02*
X113173200Y-80983000D01*
X118373200Y-78323000D02*
X113173200Y-78323000D01*
X151861200Y-89597000D02*
X151861200Y-88327000D01*
X153131200Y-89597000D02*
X151861200Y-89597000D01*
X155291200Y-87284071D02*
X155291200Y-86829929D01*
X156051200Y-87284071D02*
X156051200Y-86829929D01*
X157831200Y-87284071D02*
X157831200Y-86829929D01*
X158591200Y-87284071D02*
X158591200Y-86829929D01*
X160371200Y-87284071D02*
X160371200Y-86829929D01*
X161131200Y-87284071D02*
X161131200Y-86829929D01*
X152751200Y-87217000D02*
X152751200Y-86829929D01*
X153511200Y-87217000D02*
X153511200Y-86829929D01*
X152751200Y-84744071D02*
X152751200Y-84347000D01*
X153511200Y-84744071D02*
X153511200Y-84347000D01*
X155291200Y-84744071D02*
X155291200Y-84347000D01*
X156051200Y-84744071D02*
X156051200Y-84347000D01*
X157831200Y-84744071D02*
X157831200Y-84347000D01*
X158591200Y-84744071D02*
X158591200Y-84347000D01*
X160371200Y-84744071D02*
X160371200Y-84347000D01*
X161131200Y-84744071D02*
X161131200Y-84347000D01*
X151801200Y-84347000D02*
X162081200Y-84347000D01*
X154401200Y-84347000D02*
X154401200Y-81687000D01*
X156941200Y-84347000D02*
X156941200Y-81687000D01*
X159481200Y-84347000D02*
X159481200Y-81687000D01*
X162081200Y-84347000D02*
X162081200Y-81687000D01*
X151801200Y-81687000D02*
X151801200Y-84347000D01*
X162081200Y-81687000D02*
X151801200Y-81687000D01*
X151327000Y-94127400D02*
X152597000Y-94127400D01*
X151327000Y-95397400D02*
X151327000Y-94127400D01*
X153639929Y-97557400D02*
X154037000Y-97557400D01*
X153639929Y-98317400D02*
X154037000Y-98317400D01*
X153707000Y-95017400D02*
X154037000Y-95017400D01*
X153707000Y-95777400D02*
X154037000Y-95777400D01*
X154037000Y-94067400D02*
X154037000Y-99267400D01*
X154037000Y-96667400D02*
X156697000Y-96667400D01*
X154037000Y-99267400D02*
X156697000Y-99267400D01*
X156697000Y-94067400D02*
X154037000Y-94067400D01*
X156697000Y-95017400D02*
X162697000Y-95017400D01*
X156697000Y-95077400D02*
X162697000Y-95077400D01*
X156697000Y-95197400D02*
X162697000Y-95197400D01*
X156697000Y-95317400D02*
X162697000Y-95317400D01*
X156697000Y-95437400D02*
X162697000Y-95437400D01*
X156697000Y-95557400D02*
X162697000Y-95557400D01*
X156697000Y-95677400D02*
X162697000Y-95677400D01*
X156697000Y-97557400D02*
X162697000Y-97557400D01*
X156697000Y-99267400D02*
X156697000Y-94067400D01*
X162697000Y-95017400D02*
X162697000Y-95777400D01*
X162697000Y-95777400D02*
X156697000Y-95777400D01*
X162697000Y-97557400D02*
X162697000Y-98317400D01*
X162697000Y-98317400D02*
X156697000Y-98317400D01*
X118313200Y-107594400D02*
X118313200Y-108864400D01*
X117043200Y-107594400D02*
X118313200Y-107594400D01*
X114883200Y-109907329D02*
X114883200Y-110361471D01*
X114123200Y-109907329D02*
X114123200Y-110361471D01*
X117423200Y-109974400D02*
X117423200Y-110361471D01*
X116663200Y-109974400D02*
X116663200Y-110361471D01*
X117423200Y-112447329D02*
X117423200Y-112844400D01*
X116663200Y-112447329D02*
X116663200Y-112844400D01*
X114883200Y-112447329D02*
X114883200Y-112844400D01*
X114123200Y-112447329D02*
X114123200Y-112844400D01*
X118373200Y-112844400D02*
X113173200Y-112844400D01*
X115773200Y-112844400D02*
X115773200Y-115504400D01*
X113173200Y-112844400D02*
X113173200Y-115504400D01*
X118373200Y-115504400D02*
X118373200Y-112844400D01*
X113173200Y-115504400D02*
X118373200Y-115504400D01*
D13*
X112735200Y-86741000D02*
X112735200Y-88773000D01*
X112735200Y-86741000D02*
X114767200Y-86741000D01*
X112735200Y-107061000D02*
X112735200Y-105029000D01*
X112735200Y-107061000D02*
X114767200Y-107061000D01*
X114767200Y-86741000D02*
X112735200Y-86741000D01*
X150835200Y-86741000D02*
X148803200Y-86741000D01*
X150835200Y-86741000D02*
X150835200Y-88773000D01*
X150835200Y-107061000D02*
X148803200Y-107061000D01*
X150835200Y-107061000D02*
X150835200Y-105029000D01*
%LPC*%
D15*
X160731200Y-104013000D03*
D16*
X160731200Y-106553000D03*
D17*
X158191200Y-104013000D03*
X158191200Y-106553000D03*
D16*
X155651200Y-104013000D03*
X155651200Y-106553000D03*
X153111200Y-104013000D03*
X153111200Y-106553000D03*
D18*
X122000000Y-119000000D03*
D16*
X139573000Y-76073000D03*
X137033000Y-76073000D03*
D17*
X134493000Y-76073000D03*
X131953000Y-76073000D03*
D16*
X129413000Y-76073000D03*
X141743600Y-110337600D03*
X139203600Y-110337600D03*
X136663600Y-110337600D03*
X134123600Y-110337600D03*
X131583600Y-110337600D03*
X129043600Y-110337600D03*
X126503600Y-110337600D03*
X123963600Y-110337600D03*
X121423600Y-110337600D03*
D15*
X114503200Y-84963000D03*
D16*
X114503200Y-82423000D03*
D15*
X117043200Y-84963000D03*
X117043200Y-82423000D03*
X153131200Y-88327000D03*
D16*
X153131200Y-85787000D03*
D19*
X155671200Y-88327000D03*
X155671200Y-85787000D03*
D16*
X158211200Y-88327000D03*
X158211200Y-85787000D03*
X160751200Y-88327000D03*
X160751200Y-85787000D03*
D20*
X152597000Y-95397400D03*
D16*
X152597000Y-97937400D03*
D18*
X148000000Y-74000000D03*
D15*
X117043200Y-108864400D03*
D16*
X117043200Y-111404400D03*
D15*
X114503200Y-108864400D03*
X114503200Y-111404400D03*
D18*
X148000000Y-119000000D03*
D15*
X117815200Y-104521000D03*
X120355200Y-104521000D03*
X122895200Y-104521000D03*
X125435200Y-104521000D03*
X120355200Y-89281000D03*
X127975200Y-104521000D03*
X130515200Y-104521000D03*
X133055200Y-104521000D03*
X135595200Y-104521000D03*
X138135200Y-104521000D03*
X140675200Y-104521000D03*
X143215200Y-104521000D03*
X145755200Y-104521000D03*
X148295200Y-104521000D03*
X148295200Y-89281000D03*
X145755200Y-89281000D03*
X143215200Y-89281000D03*
X140675200Y-89281000D03*
X138135200Y-89281000D03*
X135595200Y-89281000D03*
X133055200Y-89281000D03*
X130515200Y-89281000D03*
X127975200Y-89281000D03*
X125435200Y-89281000D03*
X122895200Y-89281000D03*
X117815200Y-89281000D03*
X115275200Y-104521000D03*
X115275200Y-89281000D03*
D18*
X122000000Y-74000000D03*
D16*
X119999600Y-100076000D03*
D15*
X122539600Y-100076000D03*
X125079600Y-100076000D03*
X127619600Y-100076000D03*
X130159600Y-100076000D03*
X132699600Y-100076000D03*
X119999600Y-112776000D03*
D17*
X122539600Y-112776000D03*
D15*
X125079600Y-112776000D03*
X127619600Y-112776000D03*
X130159600Y-112776000D03*
D17*
X132699600Y-112776000D03*
D16*
X120101200Y-82524600D03*
D15*
X122641200Y-82524600D03*
X125181200Y-82524600D03*
X127721200Y-82524600D03*
X130261200Y-82524600D03*
X132801200Y-82524600D03*
X120101200Y-95224600D03*
D17*
X122641200Y-95224600D03*
D15*
X125181200Y-95224600D03*
X127721200Y-95224600D03*
X130261200Y-95224600D03*
D17*
X132801200Y-95224600D03*
D16*
X135976200Y-100076000D03*
D15*
X138516200Y-100076000D03*
X141056200Y-100076000D03*
X143596200Y-100076000D03*
X146136200Y-100076000D03*
X148676200Y-100076000D03*
X135976200Y-112776000D03*
D17*
X138516200Y-112776000D03*
D15*
X141056200Y-112776000D03*
X143596200Y-112776000D03*
X146136200Y-112776000D03*
D17*
X148676200Y-112776000D03*
D16*
X135976200Y-82524600D03*
D15*
X138516200Y-82524600D03*
X141056200Y-82524600D03*
X143596200Y-82524600D03*
X146136200Y-82524600D03*
X148676200Y-82524600D03*
X135976200Y-95224600D03*
D17*
X138516200Y-95224600D03*
D15*
X141056200Y-95224600D03*
X143596200Y-95224600D03*
X146136200Y-95224600D03*
D17*
X148676200Y-95224600D03*
%LPD*%
M02*
