M48
; DRILL file {KiCad 7.0.5} date Mon Jul 17 11:59:11 2023
; FORMAT={-:-/ absolute / metric / decimal}
; #@! TF.CreationDate,2023-07-17T11:59:11-04:00
; #@! TF.GenerationSoftware,Kicad,Pcbnew,7.0.5
; #@! TF.FileFunction,Plated,1,4,PTH
FMAT,2
METRIC
; #@! TA.AperFunction,Plated,PTH,ComponentDrill
T1C1.000
%
G90
G05
T1
X114.503Y-82.423
X114.503Y-84.963
X114.503Y-108.864
X114.503Y-111.404
X115.275Y-89.281
X115.275Y-104.521
X117.043Y-82.423
X117.043Y-84.963
X117.043Y-108.864
X117.043Y-111.404
X117.815Y-89.281
X117.815Y-104.521
X120.0Y-100.076
X120.0Y-112.776
X120.101Y-82.525
X120.101Y-95.225
X120.355Y-89.281
X120.355Y-104.521
X121.424Y-110.338
X122.54Y-100.076
X122.54Y-112.776
X122.641Y-82.525
X122.641Y-95.225
X122.895Y-89.281
X122.895Y-104.521
X123.964Y-110.338
X125.08Y-100.076
X125.08Y-112.776
X125.181Y-82.525
X125.181Y-95.225
X125.435Y-89.281
X125.435Y-104.521
X126.504Y-110.338
X127.62Y-100.076
X127.62Y-112.776
X127.721Y-82.525
X127.721Y-95.225
X127.975Y-89.281
X127.975Y-104.521
X129.044Y-110.338
X129.413Y-76.073
X130.16Y-100.076
X130.16Y-112.776
X130.261Y-82.525
X130.261Y-95.225
X130.515Y-89.281
X130.515Y-104.521
X131.584Y-110.338
X131.953Y-76.073
X132.7Y-100.076
X132.7Y-112.776
X132.801Y-82.525
X132.801Y-95.225
X133.055Y-89.281
X133.055Y-104.521
X134.124Y-110.338
X134.493Y-76.073
X135.595Y-89.281
X135.595Y-104.521
X135.976Y-82.525
X135.976Y-95.225
X135.976Y-100.076
X135.976Y-112.776
X136.664Y-110.338
X137.033Y-76.073
X138.135Y-89.281
X138.135Y-104.521
X138.516Y-82.525
X138.516Y-95.225
X138.516Y-100.076
X138.516Y-112.776
X139.204Y-110.338
X139.573Y-76.073
X140.675Y-89.281
X140.675Y-104.521
X141.056Y-82.525
X141.056Y-95.225
X141.056Y-100.076
X141.056Y-112.776
X141.744Y-110.338
X143.215Y-89.281
X143.215Y-104.521
X143.596Y-82.525
X143.596Y-95.225
X143.596Y-100.076
X143.596Y-112.776
X145.755Y-89.281
X145.755Y-104.521
X146.136Y-82.525
X146.136Y-95.225
X146.136Y-100.076
X146.136Y-112.776
X148.295Y-89.281
X148.295Y-104.521
X148.676Y-82.525
X148.676Y-95.225
X148.676Y-100.076
X148.676Y-112.776
X152.597Y-95.397
X152.597Y-97.937
X153.111Y-104.013
X153.111Y-106.553
X153.131Y-85.787
X153.131Y-88.327
X155.651Y-104.013
X155.651Y-106.553
X155.671Y-85.787
X155.671Y-88.327
X158.191Y-104.013
X158.191Y-106.553
X158.211Y-85.787
X158.211Y-88.327
X160.731Y-104.013
X160.731Y-106.553
X160.751Y-85.787
X160.751Y-88.327
T0
M30
