G04 #@! TF.GenerationSoftware,KiCad,Pcbnew,7.0.5*
G04 #@! TF.CreationDate,2023-07-17T11:56:54-04:00*
G04 #@! TF.ProjectId,Tadpole,54616470-6f6c-4652-9e6b-696361645f70,rev?*
G04 #@! TF.SameCoordinates,Original*
G04 #@! TF.FileFunction,Copper,L1,Top*
G04 #@! TF.FilePolarity,Positive*
%FSLAX46Y46*%
G04 Gerber Fmt 4.6, Leading zero omitted, Abs format (unit mm)*
G04 Created by KiCad (PCBNEW 7.0.5) date 2023-07-17 11:56:54*
%MOMM*%
%LPD*%
G01*
G04 APERTURE LIST*
G04 #@! TA.AperFunction,ComponentPad*
%ADD10C,1.700000*%
G04 #@! TD*
G04 #@! TA.AperFunction,ComponentPad*
%ADD11O,1.700000X1.700000*%
G04 #@! TD*
G04 #@! TA.AperFunction,ComponentPad*
%ADD12R,1.700000X1.700000*%
G04 #@! TD*
G04 #@! TA.AperFunction,Conductor*
%ADD13C,0.500000*%
G04 #@! TD*
G04 #@! TA.AperFunction,Conductor*
%ADD14C,0.300000*%
G04 #@! TD*
G04 APERTURE END LIST*
D10*
X160731200Y-104013000D03*
D11*
X160731200Y-106553000D03*
D12*
X158191200Y-104013000D03*
X158191200Y-106553000D03*
D11*
X155651200Y-104013000D03*
X155651200Y-106553000D03*
X153111200Y-104013000D03*
X153111200Y-106553000D03*
X139573000Y-76073000D03*
X137033000Y-76073000D03*
D12*
X134493000Y-76073000D03*
X131953000Y-76073000D03*
D11*
X129413000Y-76073000D03*
X141743600Y-110337600D03*
X139203600Y-110337600D03*
X136663600Y-110337600D03*
X134123600Y-110337600D03*
X131583600Y-110337600D03*
X129043600Y-110337600D03*
X126503600Y-110337600D03*
X123963600Y-110337600D03*
X121423600Y-110337600D03*
D10*
X114503200Y-84963000D03*
D11*
X114503200Y-82423000D03*
D10*
X117043200Y-84963000D03*
X117043200Y-82423000D03*
X153131200Y-88327000D03*
D11*
X153131200Y-85787000D03*
D12*
X155671200Y-88327000D03*
X155671200Y-85787000D03*
D11*
X158211200Y-88327000D03*
X158211200Y-85787000D03*
X160751200Y-88327000D03*
X160751200Y-85787000D03*
D12*
X152597000Y-95397400D03*
D11*
X152597000Y-97937400D03*
D10*
X117043200Y-108864400D03*
D11*
X117043200Y-111404400D03*
D10*
X114503200Y-108864400D03*
X114503200Y-111404400D03*
X117815200Y-104521000D03*
X120355200Y-104521000D03*
X122895200Y-104521000D03*
X125435200Y-104521000D03*
X120355200Y-89281000D03*
X127975200Y-104521000D03*
X130515200Y-104521000D03*
X133055200Y-104521000D03*
X135595200Y-104521000D03*
X138135200Y-104521000D03*
X140675200Y-104521000D03*
X143215200Y-104521000D03*
X145755200Y-104521000D03*
X148295200Y-104521000D03*
X148295200Y-89281000D03*
X145755200Y-89281000D03*
X143215200Y-89281000D03*
X140675200Y-89281000D03*
X138135200Y-89281000D03*
X135595200Y-89281000D03*
X133055200Y-89281000D03*
X130515200Y-89281000D03*
X127975200Y-89281000D03*
X125435200Y-89281000D03*
X122895200Y-89281000D03*
X117815200Y-89281000D03*
X115275200Y-104521000D03*
X115275200Y-89281000D03*
D11*
X119999600Y-100076000D03*
D10*
X122539600Y-100076000D03*
X125079600Y-100076000D03*
X127619600Y-100076000D03*
X130159600Y-100076000D03*
X132699600Y-100076000D03*
X119999600Y-112776000D03*
D12*
X122539600Y-112776000D03*
D10*
X125079600Y-112776000D03*
X127619600Y-112776000D03*
X130159600Y-112776000D03*
D12*
X132699600Y-112776000D03*
D11*
X120101200Y-82524600D03*
D10*
X122641200Y-82524600D03*
X125181200Y-82524600D03*
X127721200Y-82524600D03*
X130261200Y-82524600D03*
X132801200Y-82524600D03*
X120101200Y-95224600D03*
D12*
X122641200Y-95224600D03*
D10*
X125181200Y-95224600D03*
X127721200Y-95224600D03*
X130261200Y-95224600D03*
D12*
X132801200Y-95224600D03*
D11*
X135976200Y-100076000D03*
D10*
X138516200Y-100076000D03*
X141056200Y-100076000D03*
X143596200Y-100076000D03*
X146136200Y-100076000D03*
X148676200Y-100076000D03*
X135976200Y-112776000D03*
D12*
X138516200Y-112776000D03*
D10*
X141056200Y-112776000D03*
X143596200Y-112776000D03*
X146136200Y-112776000D03*
D12*
X148676200Y-112776000D03*
D11*
X135976200Y-82524600D03*
D10*
X138516200Y-82524600D03*
X141056200Y-82524600D03*
X143596200Y-82524600D03*
X146136200Y-82524600D03*
X148676200Y-82524600D03*
X135976200Y-95224600D03*
D12*
X138516200Y-95224600D03*
D10*
X141056200Y-95224600D03*
X143596200Y-95224600D03*
X146136200Y-95224600D03*
D12*
X148676200Y-95224600D03*
D13*
X122280600Y-91927600D02*
X122153600Y-91800600D01*
X121423600Y-108088600D02*
X121423600Y-110337600D01*
X129844800Y-84937600D02*
X132257800Y-82524600D01*
X132801200Y-82524600D02*
X133985000Y-82524600D01*
X114665600Y-106375200D02*
X119710200Y-106375200D01*
X120355200Y-89281000D02*
X120355200Y-87731600D01*
X122026600Y-90952400D02*
X122153600Y-91079400D01*
X120355200Y-89408000D02*
X120355200Y-89281000D01*
X135976200Y-95417800D02*
X132699600Y-98694400D01*
X122090100Y-92118100D02*
X120101200Y-94107000D01*
X121010600Y-89936400D02*
X122026600Y-90952400D01*
X122090100Y-91015900D02*
X122026600Y-90952400D01*
X132699600Y-100076000D02*
X134477600Y-101854000D01*
X121310400Y-110337600D02*
X119999600Y-111648400D01*
X160731200Y-106553000D02*
X160731200Y-104013000D01*
X122641200Y-91567000D02*
X122280600Y-91927600D01*
X132105400Y-115798600D02*
X123022200Y-115798600D01*
X134188200Y-91567000D02*
X135976200Y-93355000D01*
X135976200Y-112776000D02*
X136525000Y-112776000D01*
X119804100Y-89959100D02*
X113370200Y-96393000D01*
X122641200Y-91567000D02*
X134188200Y-91567000D01*
X153131200Y-85787000D02*
X153131200Y-88327000D01*
X135976200Y-112776000D02*
X135128000Y-112776000D01*
X119804100Y-89959100D02*
X120355200Y-89408000D01*
X133985000Y-82524600D02*
X136652000Y-85191600D01*
X137033000Y-114046000D02*
X138811000Y-115824000D01*
X119804100Y-89959100D02*
X119826800Y-89936400D01*
X122153600Y-91079400D02*
X122641200Y-91567000D01*
X132257800Y-82524600D02*
X132801200Y-82524600D01*
X148676200Y-82524600D02*
X151231600Y-82524600D01*
X122280600Y-91927600D02*
X122090100Y-92118100D01*
X134477600Y-101854000D02*
X146898200Y-101854000D01*
X135976200Y-93355000D02*
X135976200Y-95224600D01*
X136652000Y-85191600D02*
X146009200Y-85191600D01*
X119999600Y-111648400D02*
X119999600Y-112776000D01*
X120101200Y-94107000D02*
X120101200Y-95224600D01*
X119826800Y-89936400D02*
X121010600Y-89936400D01*
X146898200Y-101854000D02*
X148676200Y-100076000D01*
X113370200Y-105079800D02*
X114665600Y-106375200D01*
X121423600Y-110337600D02*
X121310400Y-110337600D01*
X132699600Y-98694400D02*
X132699600Y-100076000D01*
X135128000Y-112776000D02*
X132105400Y-115798600D01*
X135976200Y-95224600D02*
X135976200Y-95417800D01*
X120355200Y-87731600D02*
X123149200Y-84937600D01*
X151231600Y-82524600D02*
X153131200Y-84424200D01*
X136525000Y-112776000D02*
X137033000Y-113284000D01*
X120355200Y-89281000D02*
X121010600Y-89936400D01*
X153670000Y-115824000D02*
X160731200Y-108762800D01*
X123149200Y-84937600D02*
X129844800Y-84937600D01*
X153131200Y-84424200D02*
X153131200Y-85787000D01*
X137033000Y-113284000D02*
X137033000Y-114046000D01*
X123022200Y-115798600D02*
X119999600Y-112776000D01*
X122153600Y-91800600D02*
X122153600Y-91079400D01*
X119710200Y-106375200D02*
X121423600Y-108088600D01*
X160731200Y-108762800D02*
X160731200Y-106553000D01*
X122090100Y-92118100D02*
X122090100Y-91015900D01*
X113370200Y-96393000D02*
X113370200Y-105079800D01*
X138811000Y-115824000D02*
X153670000Y-115824000D01*
X146009200Y-85191600D02*
X148676200Y-82524600D01*
D14*
X131583600Y-110337600D02*
X136003200Y-105918000D01*
X136003200Y-105918000D02*
X139278200Y-105918000D01*
X139278200Y-105918000D02*
X140675200Y-104521000D01*
X140929200Y-106807000D02*
X137654200Y-106807000D01*
X137654200Y-106807000D02*
X134123600Y-110337600D01*
X143215200Y-104521000D02*
X140929200Y-106807000D01*
X139406800Y-107594400D02*
X136663600Y-110337600D01*
X145755200Y-104521000D02*
X142681800Y-107594400D01*
X142681800Y-107594400D02*
X139406800Y-107594400D01*
X148295200Y-104521000D02*
X144358200Y-108458000D01*
X141083200Y-108458000D02*
X139203600Y-110337600D01*
X144358200Y-108458000D02*
X141083200Y-108458000D01*
X149946200Y-105933400D02*
X146532600Y-109347000D01*
X142734200Y-109347000D02*
X141743600Y-110337600D01*
X148295200Y-89281000D02*
X149946200Y-90932000D01*
X146532600Y-109347000D02*
X142734200Y-109347000D01*
X149946200Y-90932000D02*
X149946200Y-105933400D01*
M02*
