G04 #@! TF.GenerationSoftware,KiCad,Pcbnew,7.0.5*
G04 #@! TF.CreationDate,2023-07-17T11:56:54-04:00*
G04 #@! TF.ProjectId,Tadpole,54616470-6f6c-4652-9e6b-696361645f70,rev?*
G04 #@! TF.SameCoordinates,Original*
G04 #@! TF.FileFunction,Copper,L4,Bot*
G04 #@! TF.FilePolarity,Positive*
%FSLAX46Y46*%
G04 Gerber Fmt 4.6, Leading zero omitted, Abs format (unit mm)*
G04 Created by KiCad (PCBNEW 7.0.5) date 2023-07-17 11:56:54*
%MOMM*%
%LPD*%
G01*
G04 APERTURE LIST*
G04 #@! TA.AperFunction,ComponentPad*
%ADD10C,1.700000*%
G04 #@! TD*
G04 #@! TA.AperFunction,ComponentPad*
%ADD11O,1.700000X1.700000*%
G04 #@! TD*
G04 #@! TA.AperFunction,ComponentPad*
%ADD12R,1.700000X1.700000*%
G04 #@! TD*
G04 #@! TA.AperFunction,Conductor*
%ADD13C,0.400000*%
G04 #@! TD*
G04 #@! TA.AperFunction,Conductor*
%ADD14C,0.300000*%
G04 #@! TD*
G04 APERTURE END LIST*
D10*
X160731200Y-104013000D03*
D11*
X160731200Y-106553000D03*
D12*
X158191200Y-104013000D03*
X158191200Y-106553000D03*
D11*
X155651200Y-104013000D03*
X155651200Y-106553000D03*
X153111200Y-104013000D03*
X153111200Y-106553000D03*
X139573000Y-76073000D03*
X137033000Y-76073000D03*
D12*
X134493000Y-76073000D03*
X131953000Y-76073000D03*
D11*
X129413000Y-76073000D03*
X141743600Y-110337600D03*
X139203600Y-110337600D03*
X136663600Y-110337600D03*
X134123600Y-110337600D03*
X131583600Y-110337600D03*
X129043600Y-110337600D03*
X126503600Y-110337600D03*
X123963600Y-110337600D03*
X121423600Y-110337600D03*
D10*
X114503200Y-84963000D03*
D11*
X114503200Y-82423000D03*
D10*
X117043200Y-84963000D03*
X117043200Y-82423000D03*
X153131200Y-88327000D03*
D11*
X153131200Y-85787000D03*
D12*
X155671200Y-88327000D03*
X155671200Y-85787000D03*
D11*
X158211200Y-88327000D03*
X158211200Y-85787000D03*
X160751200Y-88327000D03*
X160751200Y-85787000D03*
D12*
X152597000Y-95397400D03*
D11*
X152597000Y-97937400D03*
D10*
X117043200Y-108864400D03*
D11*
X117043200Y-111404400D03*
D10*
X114503200Y-108864400D03*
X114503200Y-111404400D03*
X117815200Y-104521000D03*
X120355200Y-104521000D03*
X122895200Y-104521000D03*
X125435200Y-104521000D03*
X120355200Y-89281000D03*
X127975200Y-104521000D03*
X130515200Y-104521000D03*
X133055200Y-104521000D03*
X135595200Y-104521000D03*
X138135200Y-104521000D03*
X140675200Y-104521000D03*
X143215200Y-104521000D03*
X145755200Y-104521000D03*
X148295200Y-104521000D03*
X148295200Y-89281000D03*
X145755200Y-89281000D03*
X143215200Y-89281000D03*
X140675200Y-89281000D03*
X138135200Y-89281000D03*
X135595200Y-89281000D03*
X133055200Y-89281000D03*
X130515200Y-89281000D03*
X127975200Y-89281000D03*
X125435200Y-89281000D03*
X122895200Y-89281000D03*
X117815200Y-89281000D03*
X115275200Y-104521000D03*
X115275200Y-89281000D03*
D11*
X119999600Y-100076000D03*
D10*
X122539600Y-100076000D03*
X125079600Y-100076000D03*
X127619600Y-100076000D03*
X130159600Y-100076000D03*
X132699600Y-100076000D03*
X119999600Y-112776000D03*
D12*
X122539600Y-112776000D03*
D10*
X125079600Y-112776000D03*
X127619600Y-112776000D03*
X130159600Y-112776000D03*
D12*
X132699600Y-112776000D03*
D11*
X120101200Y-82524600D03*
D10*
X122641200Y-82524600D03*
X125181200Y-82524600D03*
X127721200Y-82524600D03*
X130261200Y-82524600D03*
X132801200Y-82524600D03*
X120101200Y-95224600D03*
D12*
X122641200Y-95224600D03*
D10*
X125181200Y-95224600D03*
X127721200Y-95224600D03*
X130261200Y-95224600D03*
D12*
X132801200Y-95224600D03*
D11*
X135976200Y-100076000D03*
D10*
X138516200Y-100076000D03*
X141056200Y-100076000D03*
X143596200Y-100076000D03*
X146136200Y-100076000D03*
X148676200Y-100076000D03*
X135976200Y-112776000D03*
D12*
X138516200Y-112776000D03*
D10*
X141056200Y-112776000D03*
X143596200Y-112776000D03*
X146136200Y-112776000D03*
D12*
X148676200Y-112776000D03*
D11*
X135976200Y-82524600D03*
D10*
X138516200Y-82524600D03*
X141056200Y-82524600D03*
X143596200Y-82524600D03*
X146136200Y-82524600D03*
X148676200Y-82524600D03*
X135976200Y-95224600D03*
D12*
X138516200Y-95224600D03*
D10*
X141056200Y-95224600D03*
X143596200Y-95224600D03*
X146136200Y-95224600D03*
D12*
X148676200Y-95224600D03*
D13*
X121605200Y-86985000D02*
X117043200Y-82423000D01*
X143596200Y-95224600D02*
X139303600Y-90932000D01*
X139303600Y-90932000D02*
X122778433Y-90932000D01*
X122778433Y-90932000D02*
X121605200Y-89758767D01*
X121605200Y-89758767D02*
X121605200Y-86985000D01*
D14*
X127619600Y-102336600D02*
X127619600Y-100076000D01*
X125435200Y-104521000D02*
X127619600Y-102336600D01*
X127975200Y-104521000D02*
X130159600Y-102336600D01*
X130159600Y-102336600D02*
X130159600Y-100076000D01*
X143596200Y-100076000D02*
X141183200Y-102489000D01*
X141183200Y-102489000D02*
X132547200Y-102489000D01*
X132547200Y-102489000D02*
X130515200Y-104521000D01*
X146136200Y-100076000D02*
X143113600Y-103098600D01*
X143113600Y-103098600D02*
X134477600Y-103098600D01*
X134477600Y-103098600D02*
X133055200Y-104521000D01*
X130515200Y-89281000D02*
X135298400Y-84497800D01*
X144315400Y-84497800D02*
X146136200Y-82677000D01*
X135298400Y-84497800D02*
X144315400Y-84497800D01*
X133258400Y-83997800D02*
X142275400Y-83997800D01*
X142275400Y-83997800D02*
X143596200Y-82677000D01*
X127975200Y-89281000D02*
X133258400Y-83997800D01*
X125435200Y-87376000D02*
X125435200Y-89281000D01*
X130286600Y-82524600D02*
X125435200Y-87376000D01*
X122895200Y-87376000D02*
X122895200Y-89281000D01*
X127746600Y-82524600D02*
X122895200Y-87376000D01*
D13*
X127762000Y-112633600D02*
X127619600Y-112776000D01*
X126886384Y-108839000D02*
X127762000Y-109714616D01*
X117043200Y-108864400D02*
X117068600Y-108839000D01*
X117068600Y-108839000D02*
X126886384Y-108839000D01*
X127762000Y-109714616D02*
X127762000Y-112633600D01*
X123606400Y-114249200D02*
X125079600Y-112776000D01*
X117043200Y-112606481D02*
X118685919Y-114249200D01*
X118685919Y-114249200D02*
X123606400Y-114249200D01*
X117043200Y-111404400D02*
X117043200Y-112606481D01*
X138617800Y-115214400D02*
X141056200Y-112776000D01*
X130391971Y-115214400D02*
X138617800Y-115214400D01*
X118402000Y-115227000D02*
X130379371Y-115227000D01*
X115773200Y-110134400D02*
X115773200Y-112598200D01*
X130379371Y-115227000D02*
X130391971Y-115214400D01*
X114503200Y-108864400D02*
X115773200Y-110134400D01*
X115773200Y-112598200D02*
X118402000Y-115227000D01*
X140294200Y-116078000D02*
X143596200Y-112776000D01*
X114503200Y-112654400D02*
X117926800Y-116078000D01*
X114503200Y-111404400D02*
X114503200Y-112654400D01*
X117926800Y-116078000D02*
X140294200Y-116078000D01*
D14*
X139921200Y-87495000D02*
X149366700Y-87495000D01*
X152422700Y-90551000D02*
X155987200Y-90551000D01*
X149366700Y-87495000D02*
X152422700Y-90551000D01*
X138135200Y-89281000D02*
X139921200Y-87495000D01*
X155987200Y-90551000D02*
X158211200Y-88327000D01*
X133055200Y-89281000D02*
X136230200Y-86106000D01*
X150837900Y-83413600D02*
X155837800Y-83413600D01*
X155837800Y-83413600D02*
X158211200Y-85787000D01*
X136230200Y-86106000D02*
X148145500Y-86106000D01*
X148145500Y-86106000D02*
X150837900Y-83413600D01*
X140675200Y-89281000D02*
X141945200Y-88011000D01*
X152232200Y-91313000D02*
X157765200Y-91313000D01*
X148930200Y-88011000D02*
X152232200Y-91313000D01*
X157765200Y-91313000D02*
X160751200Y-88327000D01*
X141945200Y-88011000D02*
X148930200Y-88011000D01*
X135595200Y-89281000D02*
X137881200Y-86995000D01*
X159543200Y-86995000D02*
X160751200Y-85787000D01*
X137881200Y-86995000D02*
X159543200Y-86995000D01*
D13*
X117495000Y-93974600D02*
X126471200Y-93974600D01*
X114503200Y-84963000D02*
X113995200Y-85471000D01*
X113995200Y-90474800D02*
X117495000Y-93974600D01*
X126471200Y-93974600D02*
X127721200Y-95224600D01*
X113995200Y-85471000D02*
X113995200Y-90474800D01*
X113131600Y-83794600D02*
X114503200Y-82423000D01*
X117729000Y-97155000D02*
X113131600Y-92557600D01*
X125181200Y-95511700D02*
X123537900Y-97155000D01*
X123537900Y-97155000D02*
X117729000Y-97155000D01*
X113131600Y-92557600D02*
X113131600Y-83794600D01*
X125181200Y-95224600D02*
X125181200Y-95511700D01*
X116565200Y-85441000D02*
X117043200Y-84963000D01*
X116565200Y-90098400D02*
X116565200Y-85441000D01*
X138579800Y-92748200D02*
X119215000Y-92748200D01*
X141056200Y-95224600D02*
X138579800Y-92748200D01*
X119215000Y-92748200D02*
X116565200Y-90098400D01*
D14*
X152450800Y-102412800D02*
X154051000Y-102412800D01*
X150596600Y-104267000D02*
X152450800Y-102412800D01*
X150581200Y-104267000D02*
X150596600Y-104267000D01*
X137119200Y-106045000D02*
X148803200Y-106045000D01*
X154051000Y-102412800D02*
X155651200Y-104013000D01*
X148803200Y-106045000D02*
X150581200Y-104267000D01*
X135595200Y-104521000D02*
X137119200Y-106045000D01*
X120355200Y-104521000D02*
X120355200Y-105064400D01*
X123342400Y-108051600D02*
X154152600Y-108051600D01*
X120355200Y-105064400D02*
X123342400Y-108051600D01*
X154152600Y-108051600D02*
X155651200Y-106553000D01*
X150393400Y-106730800D02*
X153111200Y-104013000D01*
X122895200Y-104521000D02*
X125105000Y-106730800D01*
X125105000Y-106730800D02*
X150393400Y-106730800D01*
X119321500Y-102819200D02*
X120904000Y-102819200D01*
X120904000Y-102819200D02*
X121615200Y-103530400D01*
X124002800Y-107442000D02*
X152222200Y-107442000D01*
X121615200Y-105054400D02*
X124002800Y-107442000D01*
X152222200Y-107442000D02*
X153111200Y-106553000D01*
X117815200Y-104325500D02*
X119321500Y-102819200D01*
X117815200Y-104521000D02*
X117815200Y-104325500D01*
X121615200Y-103530400D02*
X121615200Y-105054400D01*
M02*
